<svg width="512" height="512" xmlns="http://www.w3.org/2000/svg">

 <g>
  <title>background</title>
  <rect fill="none" id="canvas_background" height="402" width="582" y="-1" x="-1"/>
 </g>
 <g>
  <title>Layer 1</title>
  <path id="svg_20" fill="#62C2FF" d="m354.315,426.134c-0.461,-0.011 -0.922,-0.075 -1.361,-0.192c-0.911,-0.236 -2.047,-0.482 -3.354,-0.772c-3.935,-0.857 -9.337,-2.036 -14.471,-4.213c-115.499,-48.751 -197.264,-129.316 -243.025,-239.455c-7.921,-19.08 -8.317,-37.452 -1.136,-53.135c7.546,-16.485 22.874,-28.941 44.323,-36.016c4.191,-1.372 8.34,-2.069 12.359,-2.069c4.073,0 8.114,0.708 12.037,2.123c18.512,6.678 62.46,65.461 63.532,84.991c0.965,17.279 -12.541,26.241 -19.798,31.054c-12.745,8.5 -15.104,18.93 -7.868,34.88c15.007,33.068 41.269,58.13 78.057,74.498c4.588,2.036 8.779,3.065 12.488,3.065c6.271,0 11.352,-3.013 15.531,-9.197c9.358,-13.902 20.678,-20.944 33.637,-20.944c9.637,0 19.83,3.794 31.203,11.619l6.003,4.116c8.726,5.97 17.751,12.145 26.241,18.844c1.64,1.297 3.333,2.573 5.037,3.838c12.734,9.551 28.599,21.427 19.906,45.513c-9.905,27.409 -42.095,51.452 -68.882,51.452c-0.019,0 -0.437,0 -0.459,0zm54.411,-161.066c-13.827,-0.246 -14.031,-12.97 -14.138,-19.08c-0.021,-1.618 -0.033,-3.216 -0.226,-4.663c-10.087,-78.195 -46.511,-114.962 -125.703,-126.903c-1.189,-0.171 -2.519,-0.268 -3.88,-0.364c-5.885,-0.407 -18.147,-1.275 -17.419,-13.764c0.311,-5.392 2.766,-14.428 15.661,-14.428c1.404,0 2.818,0.086 4.18,0.183c1.019,0.064 2.005,0.139 2.895,0.139c0.289,-0.042 1.919,-0.107 1.94,-0.107c81.454,2.701 152.019,75.238 151,155.213c-0.011,1.125 0.054,2.336 0.106,3.58c0.247,5.274 0.558,11.845 -3.697,16.304c-2.466,2.583 -5.928,3.891 -10.301,3.891c0.001,-0.001 -0.386,-0.001 -0.418,-0.001zm-40.84,-15.253c-12.67,0 -13.398,-11.652 -13.752,-17.247c-0.086,-1.415 -0.161,-2.809 -0.376,-4.063c-7.921,-46.842 -24.171,-63.446 -72.418,-74.015c-1.275,-0.279 -2.69,-0.461 -4.127,-0.654c-5.156,-0.686 -11.565,-1.554 -15.178,-6.453c-2.123,-2.883 -2.819,-6.56 -2.069,-10.923c0.772,-4.513 3.698,-12.081 14.589,-12.081c2.604,0 5.435,0.439 8.179,0.879c1.179,0.193 2.337,0.386 3.452,0.515c53.584,6.313 96.825,51.988 96.396,101.821c-0.203,1.791 -0.118,3.066 -0.075,4.395c0.183,5.124 0.558,15.778 -11.255,17.558c-1.243,0.182 -2.348,0.268 -3.366,0.268zm-38.31,-12.005c-7.375,0 -13.131,-5.885 -13.999,-14.331c-1.844,-18.147 -11.127,-27.913 -29.188,-30.743c-4.984,-0.793 -10.451,-2.24 -13.26,-6.957c-1.896,-3.184 -2.068,-7.054 -0.504,-11.491c3.345,-9.529 12.853,-9.765 17.43,-9.872c0.011,0 0.021,0 0.021,0c12.734,0 26.272,6.539 37.034,17.472c10.977,11.159 17.161,24.568 16.969,36.788c0.429,11.491 -3.892,17.998 -12.831,19.037c-0.215,0.032 -1.458,0.097 -1.672,0.097z"/>
  <path id="svg_21" fill="#48B0F5" d="m384.329,329.641c13.913,10.977 31.504,20.13 23.186,43.176c-8.65,23.947 -38.578,48.086 -64.122,47.829c-3.602,-0.965 -10.719,-2.036 -17.107,-4.737c-112.23,-47.38 -193.76,-125.008 -240.088,-236.508c-15.521,-37.367 0.687,-68.924 39.833,-81.83c7.032,-2.315 13.914,-2.486 20.816,0c16.701,6.024 58.977,63.071 59.92,80.136c0.729,13.099 -8.339,20.195 -17.354,26.176c-17.012,11.341 -17.097,25.704 -9.83,41.719c16.432,36.209 44.484,61.077 80.822,77.242c13.185,5.853 25.79,5.273 34.794,-8.083c16.036,-23.817 35.685,-22.66 57.176,-7.867c10.763,7.419 21.718,14.665 31.954,22.747l0,0zm-125.831,-220.643c82.044,12.37 119.882,50.637 130.333,131.631c0.965,7.503 -1.876,18.758 9.015,18.951c11.384,0.215 8.64,-10.869 8.726,-18.351c0.965,-76.32 -66.888,-147.044 -145.694,-149.66c-5.959,0.836 -18.254,-4.009 -19.016,9.047c-0.515,8.811 9.84,7.374 16.636,8.382l0,0zm16.057,22.231c-7.9,-0.943 -18.319,-4.588 -20.163,6.153c-1.918,11.255 9.679,10.119 17.14,11.748c50.68,11.105 68.323,29.199 76.663,78.464c1.222,7.204 -1.201,18.373 11.255,16.529c9.229,-1.394 5.896,-10.976 6.667,-16.571c0.407,-47.315 -40.947,-90.363 -91.562,-96.323l0,0zm4.652,38.675c-5.273,0.128 -10.44,0.686 -12.381,6.217c-2.904,8.232 3.205,10.205 9.433,11.191c20.784,3.258 31.729,15.286 33.798,35.609c0.568,5.51 4.138,9.99 9.572,9.347c7.535,-0.879 8.211,-7.438 7.985,-13.677c0.365,-22.832 -25.951,-49.223 -48.407,-48.687l0,0z"/>
  <path id="svg_22" fill="#234AA8" d="m263.021,91.354c2.465,0 4.984,0.321 7.074,0.321c0.633,0 1.222,-0.032 1.758,-0.107c78.807,2.616 146.659,73.34 145.694,149.66c-0.086,7.407 2.604,18.351 -8.403,18.351c-0.107,0 -0.215,0 -0.322,0c-10.891,-0.193 -8.05,-11.448 -9.015,-18.951c-10.451,-80.994 -48.29,-119.261 -130.334,-131.631c-6.796,-1.008 -17.15,0.429 -16.636,-8.382c0.462,-7.953 5.21,-9.261 10.184,-9.261m-115.37,4.417c3.397,0 6.785,0.579 10.172,1.801c16.7,6.024 58.977,63.071 59.919,80.136c0.729,13.099 -8.339,20.195 -17.354,26.176c-17.011,11.341 -17.097,25.704 -9.83,41.719c16.433,36.209 44.484,61.077 80.822,77.242c5.049,2.24 10.012,3.537 14.718,3.537c7.589,0 14.524,-3.377 20.076,-11.62c8.726,-12.959 18.523,-18.522 29.092,-18.522c8.876,0 18.287,3.902 28.084,10.655c10.763,7.418 21.717,14.664 31.954,22.746c13.913,10.977 31.503,20.13 23.186,43.176c-8.597,23.818 -38.257,47.829 -63.715,47.829c-0.14,0 -0.268,0 -0.407,0c-3.602,-0.965 -10.719,-2.036 -17.107,-4.737c-112.229,-47.38 -193.758,-125.008 -240.086,-236.508c-15.521,-37.367 0.686,-68.924 39.832,-81.83c3.58,-1.178 7.118,-1.8 10.644,-1.8m126.904,34.097c3.516,0 7.492,0.943 10.977,1.361c50.615,5.96 91.97,49.008 91.563,96.322c-0.771,5.595 2.563,15.178 -6.667,16.571c-0.922,0.14 -1.769,0.204 -2.541,0.204c-9.571,0 -7.578,-10.065 -8.714,-16.733c-8.34,-49.265 -25.983,-67.359 -76.664,-78.464c-7.46,-1.629 -19.059,-0.493 -17.14,-11.748c1.028,-6.001 4.737,-7.513 9.186,-7.513m16.303,40.026c22.307,0 48.097,26.09 47.732,48.697c0.226,6.239 -0.45,12.798 -7.985,13.677c-0.344,0.043 -0.687,0.054 -1.029,0.054c-4.846,0 -8.008,-4.245 -8.543,-9.4c-2.069,-20.323 -13.014,-32.351 -33.798,-35.609c-6.228,-0.986 -12.338,-2.958 -9.433,-11.191c1.94,-5.531 7.106,-6.088 12.381,-6.217c0.225,-0.011 0.451,-0.011 0.675,-0.011m-27.837,-89.516c-12.521,0 -20.42,7.321 -21.139,19.595c-0.696,11.888 6.882,18.469 22.51,19.563c1.169,0.086 2.316,0.15 3.355,0.3c-7.042,2.112 -11.813,7.643 -13.195,15.693c-1.254,7.343 0.976,12.263 3.066,15.103c4.984,6.785 13.013,7.857 18.865,8.64c1.286,0.172 2.54,0.333 3.688,0.579c0.278,0.064 0.547,0.118 0.825,0.182c-5.178,1.415 -10.826,4.695 -13.549,12.456c-2.647,7.514 -0.943,12.906 0.965,16.1c4.513,7.568 13.334,8.961 17.107,9.562c15.649,2.455 23.003,10.194 24.601,25.876c1.146,11.18 9.336,19.273 19.455,19.273c0.761,0 1.533,-0.043 2.326,-0.129c5.327,-0.621 13.388,-3.344 16.453,-13.709c0.183,1.072 0.236,2.251 0.301,3.441c0.933,14.867 7.396,22.403 19.229,22.403c1.255,0 2.638,-0.096 4.148,-0.322c10.087,-1.522 15.436,-8.125 15.95,-19.648c0.332,2.198 0.644,4.427 0.943,6.7c0.16,1.243 0.15,2.637 0.182,4.052c0.097,5.971 0.397,24.129 19.52,24.472c0.012,0 0.012,0 0.021,0c7.89,0 12.338,-3.045 14.761,-5.585c5.874,-6.163 5.499,-14.363 5.21,-20.355c-0.043,-1.136 -0.107,-2.24 -0.097,-3.259c1.05,-82.837 -71.989,-157.967 -156.307,-160.765c-0.118,0 -0.235,0 -0.364,0c-0.504,0 -1.019,0.032 -1.521,0.107c-1.019,0 -1.865,-0.075 -2.756,-0.128c-1.487,-0.1 -3.031,-0.197 -4.553,-0.197l0,0zm-115.37,4.416c-4.599,0 -9.336,0.793 -14.074,2.347c-22.939,7.568 -39.403,21.031 -47.604,38.943c-7.825,17.108 -7.461,36.992 1.072,57.529c46.328,111.511 129.08,193.062 245.95,242.402c5.596,2.369 11.288,3.612 15.436,4.513c1.212,0.269 2.262,0.493 3.099,0.719c0.9,0.235 1.811,0.364 2.732,0.375c29.36,0 63.961,-25.737 74.552,-55.075c10.076,-27.912 -9.09,-42.266 -21.771,-51.763c-1.661,-1.254 -3.323,-2.497 -4.941,-3.762c-8.618,-6.807 -17.719,-13.034 -26.529,-19.059l-5.992,-4.105c-12.306,-8.479 -23.529,-12.595 -34.313,-12.595c-14.899,0 -27.752,7.856 -38.191,23.367c-4.053,6.003 -7.997,6.774 -10.977,6.774c-2.927,0 -6.389,-0.879 -10.259,-2.594c-36.016,-16.025 -60.648,-39.489 -75.28,-71.743c-7.021,-15.479 -3.151,-22.006 5.917,-28.052c7.568,-5.027 23.368,-15.5 22.231,-35.92c-1.211,-21.899 -46.403,-82.366 -67.155,-89.848c-4.524,-1.627 -9.197,-2.453 -13.903,-2.453l0,0z"/>
 </g>
</svg>