<svg width="512" height="512" xmlns="http://www.w3.org/2000/svg">

 <g>
  <title>background</title>
  <rect fill="none" id="canvas_background" height="402" width="582" y="-1" x="-1"/>
 </g>
 <g>
  <title>Layer 1</title>
  <path id="svg_20" fill="#62C2FF" d="m313.422,426.123c-9.175,0 -15.231,-0.857 -19.068,-2.68c-1.877,-0.9 -3.088,-2.787 -3.12,-4.867c-0.021,-0.9 -1.394,-87.854 0.729,-167.464c-7.771,3.141 -20.367,6.935 -35.898,6.935c-12.381,0 -24.558,-2.411 -36.306,-7.171c0.418,28.942 1.586,122.788 -0.14,167.294c-0.096,2.647 -2.09,4.855 -4.727,5.22c-0.622,0.086 -15.478,2.133 -29.563,2.133c-7.396,0 -13.335,-0.579 -17.654,-1.736c-2.38,-0.632 -4.042,-2.766 -4.073,-5.23c-0.021,-1.704 -2.005,-170.724 0,-246.24c0.064,-2.262 1.5,-4.255 3.634,-5.017c0.6,-0.214 1.232,-0.322 1.854,-0.322c1.554,0 3.077,0.665 4.138,1.887c0.375,0.429 37.539,42.522 86.107,42.522c28.416,0 55.449,-14.32 80.361,-42.555c1.061,-1.2 2.572,-1.854 4.115,-1.854c0.654,0 1.309,0.118 1.94,0.354c2.144,0.815 3.548,2.862 3.548,5.145c-0.011,1.833 -0.45,184.391 0,245.972c0.021,2.776 -2.036,5.124 -4.78,5.478c-0.687,0.094 -16.948,2.196 -31.097,2.196l0,0zm4.577,-274.495c-17.269,0 -31.321,-14.75 -31.321,-32.865c0,-18.137 14.053,-32.886 31.321,-32.886c17.258,0 31.3,14.75 31.3,32.886c0,18.115 -14.042,32.865 -31.3,32.865zm-123.076,0c-17.269,0 -31.321,-14.75 -31.321,-32.865c0,-18.137 14.053,-32.886 31.321,-32.886c17.257,0 31.31,14.75 31.31,32.886c0,18.115 -14.053,32.865 -31.31,32.865z"/>
  <path id="svg_21" fill="#48B0F5" d="m158.113,118.763c0,-15.135 11.576,-27.398 25.833,-27.398c14.246,0 25.822,12.263 25.822,27.398c0,15.114 -11.577,27.376 -25.822,27.376c-14.257,0.001 -25.833,-12.262 -25.833,-27.376zm148.91,-27.398c-14.311,0 -25.834,12.263 -25.834,27.398c0,15.114 11.523,27.376 25.834,27.376c14.256,0 25.812,-12.263 25.812,-27.376c0,-15.135 -11.556,-27.398 -25.812,-27.398zm-21.277,327.126c10.118,4.823 47.089,0 47.089,0c-0.45,-62.321 0,-246.025 0,-246.025c-88.144,99.924 -174.722,0 -174.722,0c-2.026,76.277 0,246.025 0,246.025c14.16,3.772 45.052,-0.536 45.052,-0.536c2.058,-53.188 0,-175.665 0,-175.665c45.588,23.11 83.566,0 83.566,0c-2.507,82.731 -0.985,176.201 -0.985,176.201z"/>
  <path id="svg_22" fill="#234AA8" d="m317.999,91.365c14.257,0 25.812,12.263 25.812,27.398c0,15.114 -11.555,27.376 -25.812,27.376c-14.31,0 -25.833,-12.263 -25.833,-27.376c0,-15.135 11.523,-27.398 25.833,-27.398m-123.076,0c14.245,0 25.822,12.263 25.822,27.398c0,15.114 -11.577,27.376 -25.822,27.376c-14.257,0 -25.833,-12.263 -25.833,-27.376c-0.001,-15.135 11.576,-27.398 25.833,-27.398m148.888,81.101c0,0 -0.449,183.704 0,246.025c0,0 -16.432,2.144 -30.389,2.144c-6.978,0 -13.334,-0.536 -16.7,-2.144c0,0 -1.522,-93.471 0.986,-176.201c0,0 -16.883,10.269 -41.644,10.269c-12.381,0 -26.733,-2.573 -41.923,-10.269c0,0 2.059,122.477 0,175.665c0,0 -14.942,2.08 -28.813,2.08c-6.067,0 -11.931,-0.397 -16.24,-1.544c0,0 -2.026,-169.748 0,-246.025c0,0 38.471,44.409 90.245,44.409c25.888,0 55.097,-11.104 84.478,-44.409m-25.812,-92.077c-20.302,0 -36.81,17.215 -36.81,38.375c0,21.149 16.508,38.353 36.81,38.353c20.28,0 36.788,-17.204 36.788,-38.353c0,-21.16 -16.508,-38.375 -36.788,-38.375l0,0zm-123.076,0c-20.302,0 -36.81,17.215 -36.81,38.375c0,21.149 16.507,38.353 36.81,38.353c20.291,0 36.798,-17.204 36.798,-38.353c0,-21.16 -16.507,-38.375 -36.798,-38.375l0,0zm-25.834,81.1c-1.244,0 -2.487,0.204 -3.698,0.644c-4.267,1.522 -7.161,5.51 -7.278,10.044c-2.005,75.612 -0.021,244.738 0,246.442c0.054,4.921 3.387,9.208 8.146,10.473c4.845,1.297 11.083,1.919 19.069,1.919c14.46,0 29.681,-2.101 30.324,-2.187c5.263,-0.739 9.25,-5.135 9.454,-10.451c1.586,-41.129 0.718,-124.191 0.247,-159.64c10.022,3.194 20.292,4.802 30.71,4.802c11.93,0 22.264,-2.144 30.217,-4.609c-1.844,77.468 -0.547,158.868 -0.535,159.736c0.063,4.17 2.486,7.943 6.249,9.733c4.599,2.197 11.405,3.216 21.427,3.216c14.504,0 31.107,-2.145 31.804,-2.24c5.499,-0.719 9.594,-5.424 9.562,-10.966c-0.45,-61.549 -0.011,-244.074 0,-245.918c0.011,-4.566 -2.809,-8.661 -7.085,-10.29c-1.265,-0.482 -2.583,-0.708 -3.892,-0.708c-3.087,0 -6.109,1.308 -8.232,3.709c-23.817,27.012 -49.468,40.701 -76.244,40.701c-46.221,0 -81.594,-40.218 -81.948,-40.625c-2.133,-2.455 -5.177,-3.785 -8.297,-3.785l0,0z"/>
 </g>
</svg>