<?xml version="1.0" encoding="UTF-8"?>
<!DOCTYPE svg PUBLIC "-//W3C//DTD SVG 1.1//EN" "http://www.w3.org/Graphics/SVG/1.1/DTD/svg11.dtd">
<!-- Creator: CorelDRAW 2017 -->
<svg xmlns="http://www.w3.org/2000/svg" xml:space="preserve" width="1in" height="1.10371in" version="1.1" style="shape-rendering:geometricPrecision; text-rendering:geometricPrecision; image-rendering:optimizeQuality; fill-rule:evenodd; clip-rule:evenodd"
viewBox="0 0 135 149"
 xmlns:xlink="http://www.w3.org/1999/xlink">
 <defs>
  <style type="text/css">
   <![CDATA[
    .fil0 {fill:#FFF212}
   ]]>
  </style>
 </defs>
 <g id="Layer_x0020_1">
  <metadata id="CorelCorpID_0Corel-Layer"/>
  <path class="fil0" d="M99 86c4,-1 8,0 12,1 9,3 17,12 18,22 2,16 -9,28 -23,30 -15,2 -29,-10 -30,-24 -1,-8 2,-16 6,-21 5,-6 10,-8 18,-9zm-37 56l-1 0c-6,-1 -7,-2 -10,-5 -2,-2 -23,-23 -23,-24 -1,0 -2,-1 -2,-2 0,0 0,0 -1,-1 -1,0 0,0 -1,-1 -1,0 -2,-2 -3,-3 -8,-8 -13,-13 -14,-27 0,-8 0,-17 0,-25 0,-8 0,-17 0,-25 0,-4 0,-8 1,-11 4,-7 10,-7 17,-7 7,-1 14,-2 22,-3l11 -2c6,-1 15,1 22,2 7,1 15,2 22,3 4,1 7,1 10,3 2,2 4,5 5,8 0,2 0,3 0,5 -1,12 0,34 0,47 2,0 5,2 6,3 0,0 0,0 0,0l0 0c0,0 0,0 0,0l0 -43c0,-2 0,-12 0,-13 0,0 0,0 0,0l0 -1c-1,-4 -3,-7 -6,-10 -4,-3 -6,-4 -11,-5 -8,-2 -20,-3 -27,-4 -5,0 -9,-2 -13,-2 -5,0 -9,1 -14,1 -5,1 -10,1 -15,2 -5,1 -10,1 -15,2 -6,1 -9,1 -13,5 -3,2 -6,7 -6,11l0 1c0,3 0,53 0,57 1,12 5,21 14,29 1,1 7,6 7,7 1,0 6,6 7,7 2,2 18,19 20,20 0,0 2,1 2,2 2,1 3,1 4,2 2,1 5,1 5,1 1,0 3,0 5,0 2,0 3,0 4,-1 2,-1 5,-3 6,-5l-5 -5c-1,1 -4,4 -6,4 0,0 0,0 0,0 0,0 0,0 -1,0 0,0 -1,0 -1,0zm1 -62l2 0 3 0 1 0c4,-1 8,-2 11,-4 3,-2 4,1 6,0 1,0 2,-1 3,-1l2 -1c0,0 0,0 0,0 -1,-4 -7,-6 -12,-5 -3,1 -4,2 -9,4 -1,0 -3,0 -3,1l-2 0c-4,0 -7,0 -11,-1 -9,-2 -11,-7 -18,-4 -5,2 -8,9 -10,14 -1,2 -1,3 -1,5 -1,6 -2,4 1,8 1,1 2,2 3,3l7 5 5 2c2,1 4,2 6,2 5,1 9,2 14,2l1 -7c-6,0 -12,-1 -17,-3 -1,0 -4,-2 -5,-2l-1 -1c0,0 0,0 -1,0 -2,-1 -8,-6 -9,-7 -1,-2 3,-10 5,-13 2,-4 4,-4 7,-2 4,2 9,4 13,4l0 0c2,0 5,1 7,0zm35 37c-1,0 -2,-1 -2,-2l-2 -2c-1,-1 -1,-1 -2,-2 -3,-3 -7,0 -6,3 0,1 2,2 3,3l7 7c1,1 2,2 3,2 1,-1 9,-8 10,-9l5 -5c1,-1 4,-4 5,-5 1,-3 -2,-6 -5,-4 -1,0 -2,2 -3,2l-13 12zm-40 -91c10,-2 19,6 20,15 2,10 -6,19 -15,20 -10,1 -19,-5 -20,-14 -1,-6 1,-10 4,-14 3,-4 6,-5 11,-6zm-21 20c2,13 13,23 27,22 13,-1 23,-13 22,-27 -1,-13 -13,-23 -26,-22 -14,2 -23,14 -22,27zm39 44c0,0 -2,3 -3,4 -7,11 -7,25 0,36 3,5 8,10 14,13 20,10 44,-2 48,-25 1,-8 -1,-16 -4,-22 -6,-10 -13,-12 -13,-13 -4,-1 -4,-2 -11,-4 -19,-3 -29,10 -31,11z"/>
 </g>
</svg>
