<?xml version="1.0" encoding="UTF-8"?>
<!DOCTYPE svg PUBLIC "-//W3C//DTD SVG 1.1//EN" "http://www.w3.org/Graphics/SVG/1.1/DTD/svg11.dtd">
<!-- Creator: CorelDRAW 2017 -->
<svg xmlns="http://www.w3.org/2000/svg" xml:space="preserve" width="4in" height="4.54881in" version="1.1" style="shape-rendering:geometricPrecision; text-rendering:geometricPrecision; image-rendering:optimizeQuality; fill-rule:evenodd; clip-rule:evenodd"
viewBox="0 0 293 333"
 xmlns:xlink="http://www.w3.org/1999/xlink">
 <defs>
  <style type="text/css">
   <![CDATA[
    .fil0 {fill:#FFF212}
   ]]>
  </style>
 </defs>
 <g id="Layer_x0020_1">
  <metadata id="CorelCorpID_0Corel-Layer"/>
  <path class="fil0" d="M66 313l-47 0 0 -156 47 0c8,0 12,4 12,12l0 133c0,8 -4,12 -12,12zm-27 -31c0,16 19,12 19,3 0,-16 -19,-12 -19,-3zm74 -247c0,6 6,11 10,14 4,4 8,10 15,10 4,0 9,-4 9,-10 0,-6 -6,-10 -10,-14 -5,-5 -12,-15 -21,-7 -1,1 -3,5 -3,7zm110 14c0,5 5,10 10,10 6,0 10,-6 14,-10 5,-5 15,-12 7,-21 -1,-1 -5,-3 -7,-3 -6,0 -11,6 -14,10 -4,4 -10,8 -10,14zm-48 -42l0 23c0,11 19,11 19,0l0 -23c0,-11 -19,-11 -19,0zm10 149c-8,0 -22,-1 -26,2 -5,4 -5,13 1,16 4,2 29,1 35,1 8,0 66,-1 71,1 6,2 8,10 3,15 -7,7 -25,1 -31,4 -7,4 -6,15 1,18 8,3 33,-5 33,10 0,15 -24,7 -33,10 -8,3 -8,16 0,19 8,3 33,-5 33,10 0,15 -24,7 -33,10 -8,3 -8,16 0,19 6,2 7,-1 11,4 4,5 3,16 -9,16l-75 0c-22,0 -34,-5 -53,-11 -5,-2 -11,-4 -17,-5l0 -120c14,-3 31,-13 40,-24 1,-1 1,-2 2,-3l8 -9c6,-9 11,-17 16,-28 4,-10 7,-21 10,-33 13,0 21,9 21,21 0,16 -2,36 -7,51 -1,2 -2,4 -2,6zm-90 -1c-3,-6 -4,-7 -9,-12 -3,-3 -10,-6 -16,-6l-62 0c-4,0 -8,4 -8,8l0 178c0,4 4,8 8,8l61 0c11,0 23,-9 25,-16 3,0 11,3 15,5 15,5 32,12 49,12l88 0c14,0 27,-14 27,-27 0,-9 0,-5 -2,-13 10,-1 21,-15 21,-26 0,-6 0,-8 -2,-14 -1,-3 -3,-5 -5,-8 6,-8 7,-10 7,-21 0,-8 -4,-13 -7,-18 2,-3 3,-4 5,-8 5,-12 3,-24 -7,-33 -5,-5 -11,-8 -20,-8 -19,0 -38,0 -57,0 1,-3 2,-6 3,-10 5,-20 5,-31 5,-51 0,-19 -18,-37 -37,-37 -22,0 -19,-2 -26,28 -2,9 -6,18 -10,26 -5,10 -14,23 -22,30 -7,5 -12,11 -23,13z"/>
 </g>
</svg>
