<?xml version="1.0" encoding="UTF-8"?>
<!DOCTYPE svg PUBLIC "-//W3C//DTD SVG 1.1//EN" "http://www.w3.org/Graphics/SVG/1.1/DTD/svg11.dtd">
<!-- Creator: CorelDRAW 2017 -->
<svg xmlns="http://www.w3.org/2000/svg" xml:space="preserve" width="1in" height="0.815454in" version="1.1" style="shape-rendering:geometricPrecision; text-rendering:geometricPrecision; image-rendering:optimizeQuality; fill-rule:evenodd; clip-rule:evenodd"
viewBox="0 0 1540 1256"
 xmlns:xlink="http://www.w3.org/1999/xlink">
 <defs>
  <style type="text/css">
   <![CDATA[
    .fil0 {fill:#FFF212;fill-rule:nonzero}
   ]]>
  </style>
 </defs>
 <g id="Layer_x0020_1">
  <metadata id="CorelCorpID_0Corel-Layer"/>
  <g id="_2757710281872">
   <path class="fil0" d="M692 724c-11,-15 -29,-25 -48,-25 -4,0 -9,1 -13,2l-44 10c-12,3 -22,9 -30,18 -8,8 -13,19 -15,30 -2,10 5,20 15,22 10,2 20,-5 22,-15 1,-4 3,-8 6,-11 3,-3 7,-5 11,-7l44 -10c2,0 3,-1 5,-1 7,0 14,4 18,9 6,8 18,10 26,4 8,-6 10,-18 4,-26z"/>
   <path class="fil0" d="M866 684c-11,-15 -29,-25 -48,-25 -4,0 -9,1 -13,2l-44 10c-12,3 -22,9 -30,18 -8,8 -13,19 -15,30 -2,10 5,20 15,22 10,2 20,-5 22,-15 1,-4 3,-8 6,-11 3,-3 7,-5 11,-7l44 -10c2,0 3,-1 5,-1 7,0 14,4 18,9 6,8 18,10 26,4 8,-6 10,-18 4,-26z"/>
   <path class="fil0" d="M1029 632c-10,-8 -23,-13 -37,-13 -4,0 -9,1 -13,2l-44 10c-12,3 -22,9 -30,18 -8,8 -13,19 -15,30 -2,10 5,20 15,22 10,2 20,-5 22,-15 1,-4 3,-8 6,-11 3,-3 7,-5 11,-7l44 -10c2,0 3,-1 5,-1 5,0 10,2 14,5 8,6 20,5 26,-3 6,-8 5,-20 -3,-26l0 0z"/>
   <path class="fil0" d="M910 777c6,9 14,15 24,19 9,4 20,0 25,-9 4,-9 0,-20 -9,-25 -4,-2 -7,-4 -9,-7 -6,-8 -18,-10 -26,-4 -8,6 -10,18 -4,26z"/>
   <path class="fil0" d="M736 817c11,15 29,25 48,25 4,0 9,-1 13,-2l44 -10c12,-3 22,-9 30,-18 8,-8 13,-19 15,-30 2,-10 -5,-20 -15,-22 -10,-2 -20,5 -22,15 -1,4 -3,8 -6,11 -3,3 -7,5 -11,7l-44 10c-2,0 -3,1 -5,1 -7,0 -14,-4 -18,-9 -6,-8 -18,-10 -26,-4 -8,6 -10,18 -4,26z"/>
   <path class="fil0" d="M561 858c11,15 29,25 48,25 4,0 9,0 13,-2l44 -10c12,-3 22,-9 30,-18 8,-8 13,-19 15,-30 2,-10 -5,-20 -15,-22 -10,-2 -20,5 -22,15 -1,4 -3,8 -6,11 -3,3 -7,5 -11,7l-44 10c-2,0 -3,1 -5,1 -7,0 -14,-4 -18,-9 -6,-8 -18,-10 -26,-4 -8,6 -10,18 -4,26z"/>
   <path class="fil0" d="M992 837l0 -18c-5,0 -10,-1 -14,-4l0 0 0 0c-9,-5 -13,-14 -13,-23 0,-4 1,-7 2,-11l0 0 0 0 1 -2 0 0 133 -227 -61 -106 0 0c-1,-2 -2,-6 -2,-11 0,-4 1,-9 2,-13 1,-4 3,-8 4,-10l0 0 7 -12 90 -156 -96 13 -123 138 0 0c-5,6 -13,9 -20,9 -7,0 -13,-2 -18,-7l0 0c-6,-5 -9,-13 -9,-20 0,-7 2,-13 7,-18l0 0 119 -132c12,-13 28,-22 45,-24l130 -17 49 -7 -13 -24c-6,-11 -10,-24 -10,-38 0,-22 9,-41 23,-55 14,-14 34,-23 55,-23 22,0 41,9 55,23 14,14 23,34 23,55 0,21 -8,39 -21,53 -13,14 -31,23 -52,24l-24 2 54 151 158 -20 0 0c1,0 2,0 3,0 7,0 15,3 20,8 5,5 8,12 8,19l0 1 0 0c0,6 -3,12 -7,17 -5,5 -11,8 -18,9l-177 22 0 0c-1,0 -2,0 -4,0 -12,0 -23,-8 -28,-19l0 0 -26 -73 -89 154 217 36 0 0c7,5 11,14 11,22 0,4 -1,7 -2,11l0 0 -97 222 0 0c-4,10 -14,16 -25,16 -4,0 -7,-1 -11,-2l0 0c-5,-2 -9,-6 -12,-10 -3,-4 -4,-10 -4,-15 0,-4 1,-7 2,-11l80 -183 -154 -22 0 22 0 1c0,5 -1,10 -4,14l0 0 -113 192 0 0 -20 34 16 9 0 -18 -11 0 -14 24 0 0c-5,8 -14,13 -24,13l0 37c23,0 44,-12 55,-32l0 0 9 -15 -16 -9 0 18 11 0 25 -43 113 -192 0 0c6,-10 9,-21 9,-33l0 -1 -18 0 -3 18 85 12 -60 138 0 0c-4,8 -5,17 -5,25 0,12 4,24 10,35 7,10 16,19 28,24l0 0 0 0c8,3 17,5 25,5 26,0 49,-15 59,-39l0 0 97 -222 0 0c4,-8 5,-17 5,-25 0,-20 -9,-40 -26,-52l-4 -3 -4 -3 -173 -29 43 -74 -16 -9 -17 6 13 36 0 0c9,26 34,44 62,44 3,0 6,0 8,-1l0 0 177 -22c16,-2 30,-10 40,-20 10,-11 17,-25 17,-41l0 0 0 -2c0,-17 -6,-33 -18,-45 -12,-12 -29,-19 -46,-19 -3,0 -5,0 -8,0l0 0 -129 16 -35 -100 -17 6 1 18c30,-2 57,-15 76,-36 19,-21 31,-48 31,-79 0,-63 -51,-115 -115,-115 -63,0 -115,51 -115,115 0,20 5,39 15,56l16 -9 -3 -18 -22 3 0 0 -130 17c-26,3 -50,16 -68,36l-119 132 0 0c-11,12 -16,27 -16,42 0,18 7,35 21,48l0 0 0 0c12,10 27,16 43,16 18,0 36,-8 48,-21l114 -128 8 -1 -52 91 0 0 -7 12 16 9 -16 -10c-3,6 -6,12 -8,19 -2,7 -4,15 -4,24 0,9 2,20 7,29l50 87 -122 208 16 9 -16 -10c-2,3 -3,6 -4,9l17 6 -17 -7c-4,8 -5,17 -5,26 0,22 11,43 32,55l0 0c10,6 21,9 32,9l0 -18z"/>
   <path class="fil0" d="M992 837l0 -18c-5,0 -10,-1 -14,-4l0 0 0 0c-9,-5 -13,-14 -13,-23 0,-4 1,-7 2,-11l0 0 0 0 1 -2 0 0 133 -227 -61 -106 0 0c-1,-2 -2,-6 -2,-11 0,-4 1,-9 2,-13 1,-4 3,-8 4,-10l0 0 7 -12 90 -156 -96 13 -123 138 0 0c-5,6 -13,9 -20,9 -7,0 -13,-2 -18,-7l0 0c-6,-5 -9,-13 -9,-20 0,-7 2,-13 7,-18l0 0 119 -132c12,-13 28,-22 45,-24l130 -17 49 -7 -13 -24c-6,-11 -10,-24 -10,-38 0,-22 9,-41 23,-55 14,-14 34,-23 55,-23 22,0 41,9 55,23 14,14 23,34 23,55 0,21 -8,39 -21,53 -13,14 -31,23 -52,24l-24 2 54 151 158 -20 0 0c1,0 2,0 3,0 7,0 15,3 20,8 5,5 8,12 8,19l0 1 0 0c0,6 -3,12 -7,17 -5,5 -11,8 -18,9l-177 22 0 0c-1,0 -2,0 -4,0 -12,0 -23,-8 -28,-19l0 0 -26 -73 -89 154 217 36 0 0c7,5 11,14 11,22 0,4 -1,7 -2,11l0 0 -97 222 0 0c-4,10 -14,16 -25,16 -4,0 -7,-1 -11,-2l0 0c-5,-2 -9,-6 -12,-10 -3,-4 -4,-10 -4,-15 0,-4 1,-7 2,-11l80 -183 -154 -22 0 22 0 1c0,5 -1,10 -4,14l0 0 -113 192 0 0 -20 34 16 9 0 -18 -11 0 -14 24 0 0c-5,8 -14,13 -24,13l0 37c23,0 44,-12 55,-32l0 0 9 -15 -16 -9 0 18 11 0 25 -43 113 -192 0 0c6,-10 9,-21 9,-33l0 -1 -18 0 -3 18 85 12 -60 138 0 0c-4,8 -5,17 -5,25 0,12 4,24 10,35 7,10 16,19 28,24l0 0 0 0c8,3 17,5 25,5 26,0 49,-15 59,-39l0 0 97 -222 0 0c4,-8 5,-17 5,-25 0,-20 -9,-40 -26,-52l-4 -3 -4 -3 -173 -29 43 -74 -16 -9 -17 6 13 36 0 0c9,26 34,44 62,44 3,0 6,0 8,-1l0 0 177 -22c16,-2 30,-10 40,-20 10,-11 17,-25 17,-41l0 0 0 -2c0,-17 -6,-33 -18,-45 -12,-12 -29,-19 -46,-19 -3,0 -5,0 -8,0l0 0 -129 16 -35 -100 -17 6 1 18c30,-2 57,-15 76,-36 19,-21 31,-48 31,-79 0,-63 -51,-115 -115,-115 -63,0 -115,51 -115,115 0,20 5,39 15,56l16 -9 -3 -18 -22 3 0 0 -130 17c-26,3 -50,16 -68,36l-119 132 0 0c-11,12 -16,27 -16,42 0,18 7,35 21,48l0 0 0 0c12,10 27,16 43,16 18,0 36,-8 48,-21l114 -128 8 -1 -52 91 0 0 -7 12 16 9 -16 -10c-3,6 -6,12 -8,19 -2,7 -4,15 -4,24 0,9 2,20 7,29l50 87 -122 208 16 9 -16 -10c-2,3 -3,6 -4,9l17 6 -17 -7c-4,8 -5,17 -5,26 0,22 11,43 32,55l0 0c10,6 21,9 32,9l0 -18z"/>
   <path class="fil0" d="M154 1252l-13 -18 9 20c1,0 1,0 3,-2l-13 -18 9 20 -6 -13 5 13c0,0 0,0 1,0l-6 -13 5 13c0,0 3,-1 6,-2 13,-4 44,-13 87,-26 150,-45 454,-134 720,-213 133,-39 257,-75 347,-102 45,-13 82,-24 108,-32 26,-7 40,-12 40,-12 12,-4 19,-16 16,-29 -4,-12 -16,-19 -29,-16 0,0 -325,95 -652,191 -163,48 -327,96 -450,133 -62,18 -113,34 -149,45 -18,5 -33,10 -43,13 -5,2 -9,3 -12,4 -1,0 -3,1 -4,1l-2 1 -1 1c-1,0 -1,1 -4,2 -10,7 -13,22 -6,32 7,10 22,13 32,6z"/>
   <path class="fil0" d="M517 830l-18 0c0,64 -26,121 -68,163 -42,42 -99,68 -163,68 -64,0 -121,-26 -163,-68 -42,-42 -68,-99 -68,-163 0,-64 26,-121 68,-163 42,-42 99,-68 163,-68 64,0 121,26 163,68 42,42 68,99 68,163l37 0c0,-148 -120,-268 -268,-268 -148,0 -268,120 -268,268 0,148 120,268 268,268 148,0 268,-120 268,-268l-18 0z"/>
   <path class="fil0" d="M589 780l-77 18c-10,2 -16,12 -14,22 2,10 12,16 22,14l77 -18c10,-2 16,-12 14,-22 -2,-10 -12,-16 -22,-14z"/>
   <path class="fil0" d="M763 740l-110 25c-10,2 -16,12 -14,22 2,10 12,16 22,14l110 -25c10,-2 16,-12 14,-22 -2,-10 -12,-16 -22,-14z"/>
   <path class="fil0" d="M938 699l-110 25c-10,2 -16,12 -14,22 2,10 12,16 22,14l110 -25c10,-2 16,-12 14,-22 -2,-10 -12,-16 -22,-14z"/>
   <path class="fil0" d="M1005 704l59 34c9,5 20,2 26,-7 5,-9 2,-20 -7,-26l-59 -34c-9,-5 -20,-2 -26,7 -5,9 -2,20 7,26z"/>
   <path class="fil0" d="M992 723l59 34c9,5 20,2 26,-7 5,-9 2,-20 -7,-26l-59 -34c-9,-5 -20,-2 -26,7 -5,9 -2,20 7,26z"/>
  </g>
 </g>
</svg>
