<?xml version="1.0" encoding="UTF-8"?>
<!DOCTYPE svg PUBLIC "-//W3C//DTD SVG 1.1//EN" "http://www.w3.org/Graphics/SVG/1.1/DTD/svg11.dtd">
<!-- Creator: CorelDRAW 2017 -->
<svg xmlns="http://www.w3.org/2000/svg" xml:space="preserve" width="1in" height="1.29535in" version="1.1" style="shape-rendering:geometricPrecision; text-rendering:geometricPrecision; image-rendering:optimizeQuality; fill-rule:evenodd; clip-rule:evenodd"
viewBox="0 0 179 232"
 xmlns:xlink="http://www.w3.org/1999/xlink">
 <defs>
  <style type="text/css">
   <![CDATA[
    .fil0 {fill:#FFF212}
   ]]>
  </style>
 </defs>
 <g id="Layer_x0020_1">
  <metadata id="CorelCorpID_0Corel-Layer"/>
  <path class="fil0" d="M68 146c1,-1 1,0 3,0 9,0 33,0 39,1 0,2 -2,5 -3,6 0,1 0,1 -1,1 0,0 0,0 0,0 0,0 0,0 -1,0 -1,1 -2,2 -3,2 0,1 -1,1 -2,1 -1,1 -4,2 -5,2 -1,0 -2,1 -3,0 -1,1 -6,0 -7,0 -1,0 -3,0 -4,-1 -1,0 -3,-1 -4,-2l-1 0c-1,0 0,0 -1,-1 -1,-1 -3,-3 -4,-4 -1,0 0,0 0,-1 -1,-1 -2,-3 -2,-4l0 0zm-54 -70l0 -5 0 -5 0 -4 0 -5 0 -4c0,-3 0,-6 0,-9 0,-2 0,-2 1,-3 0,-1 1,-1 1,-1 0,-1 0,-1 1,-1 0,0 0,0 0,-1 1,-1 0,0 1,0 0,-1 0,-1 1,-1 0,0 1,0 1,-1 1,0 2,-1 3,-1 1,0 4,-1 6,-1 2,-1 3,-2 3,-3 0,-1 0,-1 1,-1l15 0c1,0 0,0 1,1 0,0 1,1 1,2 0,1 1,1 1,1 3,1 3,1 6,1 3,0 12,0 14,-1 1,0 2,-1 2,-2 0,-1 0,-1 1,-1l1 -1 0 0 2 -4c0,0 0,0 0,-1 0,0 0,0 0,0 0,-1 2,-7 3,-8l1 0 1 0c6,-1 37,0 38,0 1,0 1,0 2,0l1 0 1 4c0,1 1,4 1,4 1,1 1,3 2,4 1,1 1,2 2,3 1,2 4,2 8,2l15 0c1,0 4,0 4,1 1,0 4,2 4,3 1,0 1,1 2,2 0,0 0,0 1,1 0,1 0,1 1,1 0,0 0,0 0,1l0 54 0 4 0 5 0 4c0,4 0,13 -1,15 0,1 -2,3 -2,4 0,1 0,0 -1,1 0,1 -1,1 -2,1 -1,0 -1,1 -2,1 -2,2 -107,1 -119,1l-4 0c-2,0 -7,0 -8,0l-1 0c-2,0 -4,-1 -5,-2l0 0c-1,0 -1,0 -1,-1 0,0 -1,-1 -1,-1 -1,-1 -1,-2 -1,-3 0,-1 0,-1 0,-2 -1,-1 0,-6 0,-7l0 -2c0,0 0,0 0,0l0 -36zm56 -73l-1 2c0,1 -2,3 -2,5 -1,1 -1,4 -2,5 0,1 -1,3 -1,4 -1,0 -2,-1 -2,-2 -1,0 0,0 -1,-1 0,0 -1,0 -1,-1l-1 -1c0,0 0,0 0,0l-1 0c-3,-1 -11,-1 -14,-1l-4 0 -5 0c-1,0 -2,0 -3,0 -1,1 -3,0 -5,1 -6,3 -2,4 -11,7l-3 2 -1 1c0,1 -1,1 -2,2 0,0 0,0 -1,1 0,0 0,1 -1,1 0,1 -1,2 -2,2 0,1 0,1 -1,2 0,0 -1,1 -1,1 0,1 -1,2 -1,3l-1 3 0 3c0,14 0,28 0,42 0,14 0,28 0,41l1 3c1,1 1,2 1,3 0,1 1,2 1,3 0,0 0,0 1,1 1,0 1,1 2,2 1,1 1,1 1,2 1,0 0,0 1,1 0,0 1,1 1,1 1,1 1,1 2,2l2 1c0,0 0,0 0,0l0 0 4 2c0,0 0,0 1,0 0,0 0,0 0,0l1 0 4 0 17 1 13 0c0,1 1,4 1,5l3 5c1,1 2,4 3,5l0 0c0,1 -2,4 -2,4 0,1 0,1 -1,1 0,0 0,0 0,1 0,1 0,0 -1,1 0,1 -1,2 -1,2 -1,1 -3,6 -4,8 0,0 0,1 -1,1 0,0 0,0 0,1l-1 1c0,1 -2,3 -2,4l0 0c0,1 -2,4 -2,5 0,1 -1,1 -1,2 0,0 0,1 -1,1l-1 1 0 1 -3 5c0,0 0,0 0,0 0,1 -1,2 -1,2 0,1 -1,2 -2,3 0,1 -2,4 -2,5 -1,2 -2,3 -3,5l-4 9c0,1 0,0 0,1 0,1 0,1 0,2 0,1 0,2 0,2 0,0 0,0 0,0 0,0 0,0 0,0 1,1 1,2 2,3 1,0 0,0 1,1 0,0 1,0 1,1l2 0 2 0c0,0 0,0 0,0l3 -1c0,0 2,-3 2,-3 0,-1 1,-1 1,-2 0,0 0,-1 1,-1l1 -1 0 -1c0,-1 2,-4 3,-5 0,-1 0,0 0,-1 0,0 0,-1 1,-1 0,-1 1,-2 2,-3 0,-1 0,-1 1,-2l4 -7 6 -10c0,-1 1,-3 2,-3 0,-1 0,-1 1,-1 0,-1 2,-4 2,-5 0,-1 1,-1 1,-2 0,0 0,0 0,-1 0,-1 0,0 1,-1 0,-1 0,-1 1,-2l5 -9c1,0 3,1 4,2 1,0 3,1 4,1 1,0 2,0 2,2 1,1 1,42 1,47l0 3c0,1 1,2 1,2 1,1 1,1 2,2 0,0 0,0 1,0 0,0 0,0 1,0 0,0 1,0 1,0l2 0 1 0 2 -1c1,0 1,-1 2,-1 0,0 0,0 0,0l2 -3 0 -5 0 -4 0 -28c-1,-2 0,-11 0,-15 0,-1 0,0 0,-1l1 0c1,-1 4,-2 5,-2l3 -1c0,0 0,1 1,1 0,1 0,1 1,1 1,0 1,1 1,2 0,0 2,3 2,4 1,1 1,2 2,3 0,0 1,1 1,2 1,1 3,5 3,5l0 0 2 4c0,0 2,3 2,4 0,0 0,0 0,1 0,0 2,3 2,4 1,0 0,0 1,1 1,2 4,7 5,9 0,0 0,0 1,1 0,1 0,0 0,1 1,1 1,2 2,3 0,1 2,3 2,4 0,0 0,0 0,0 0,0 0,0 0,1 0,0 0,1 1,1 0,1 1,2 1,3 1,1 1,1 2,2 1,1 1,1 2,2 1,0 0,0 1,0 0,0 1,0 1,0l2 0 0 0c1,-1 2,0 3,-1l1 -1c0,0 0,0 0,-1 0,0 0,0 1,-1 0,-1 0,-1 1,-1 1,-3 1,-2 0,-5 -1,-1 -5,-9 -5,-9l-2 -4 0 -1 -1 -1c0,0 0,-1 -1,-1 -1,-1 -1,-2 -1,-3 0,0 0,0 0,-1 0,-1 0,0 0,-1l-1 -1c0,-1 -1,-1 -1,-2 0,-1 -2,-3 -2,-4 -1,-1 -1,-1 -1,-2 0,0 -1,-1 -1,-2 0,0 0,-1 0,-1 0,-1 0,0 0,-1 -1,-1 -2,-4 -3,-5 -1,-1 -2,-4 -3,-5 -1,0 -2,-4 -3,-4 0,-1 -1,-1 -1,-2 0,-1 -1,-2 -1,-2 -1,-1 -1,-2 -2,-3 0,-1 -1,-1 -1,-2 -1,0 -1,-1 -1,-1 0,0 0,-1 -1,-1 0,-1 -1,-2 -1,-3 0,-1 1,-2 1,-2 0,-1 1,-2 1,-2l2 -3c0,0 0,0 0,0l0 -1c0,-1 1,-2 1,-3 0,-1 0,-2 1,-3 0,-1 0,0 0,0l10 0 1 0 5 0c1,0 2,0 3,0 0,0 0,0 0,0 1,0 4,0 6,0l2 0c1,0 3,0 4,0 1,0 2,0 3,-1l4 -2c0,0 0,0 1,-1 0,0 0,0 1,0 0,0 1,-1 2,-1 0,0 1,0 1,-1 1,0 0,0 1,0 1,-1 1,-2 2,-2l2 -3c0,-1 0,-1 1,-1 0,0 0,0 0,-1 0,0 0,0 0,0 0,0 2,-4 2,-4 1,-2 1,-3 1,-6 1,-14 0,-32 0,-47l0 -14c0,-8 0,-17 -1,-24l-2 -4c-1,-1 -2,-3 -2,-4 -1,0 0,0 -1,-1 -1,0 -1,0 -1,-1 0,0 -1,-1 -1,-1 -1,-1 -1,-1 -2,-2 -1,0 0,0 -1,0 -1,-1 -1,-1 -2,-1 0,0 -1,0 -1,-1 -1,0 -1,0 -1,-1 -1,0 -3,-1 -4,-2 -1,0 -3,-1 -5,-1l-12 0c-2,0 -3,0 -4,0 0,-1 -1,-3 -1,-4 -1,-1 -2,-4 -2,-5 0,-1 -1,-2 -1,-2 0,-1 -1,-1 -1,-2 0,0 -1,-1 -1,-1 0,0 0,0 -1,-1 0,-1 0,0 0,0 -1,0 -1,-1 -3,-2 -1,0 -2,-1 -3,-1 -2,0 -7,0 -7,-1l0 0 -5 0 -4 0 -5 0 -4 0c-4,0 -20,0 -23,1 -3,0 -4,2 -5,3zm1 78c0,-2 0,-5 1,-7 0,-1 0,-2 1,-3 1,-3 4,-9 6,-10 0,-1 0,-1 1,-1 0,0 0,0 0,0 0,0 0,0 0,0 0,-1 1,-1 1,-1 1,-1 1,-1 2,-1 0,0 0,0 0,0l1 -1c1,-1 4,-3 5,-3l1 0c1,-1 1,-1 2,-1 1,0 1,0 2,-1 1,0 2,-1 3,0 1,-1 5,0 6,0l2 0c2,0 7,1 8,2 5,1 12,9 14,14l0 1c1,1 1,2 2,4 0,1 1,2 1,3 1,1 1,4 1,6l0 4c0,3 -2,9 -4,10 0,1 0,0 0,1 0,0 0,1 -1,1 0,1 -1,1 -1,2 0,1 0,1 -1,1 0,1 -1,1 -2,2l-2 1c-1,0 0,0 0,0 0,0 0,0 0,0 0,0 0,0 0,0 0,0 -1,0 -1,1 -1,0 -2,1 -3,2l-1 1c0,0 -1,0 -1,0 -1,0 -2,1 -3,1 -2,0 -4,1 -7,1 -2,0 -6,0 -7,-1 -1,0 -5,-1 -5,-2 -2,0 -8,-5 -9,-6 -1,0 -1,-1 -1,-1 -1,0 -1,-1 -2,-2 -1,-1 -1,-1 -1,-2 -1,0 0,0 -1,-1 -1,-1 -2,-3 -2,-4 -1,-1 -1,-2 -1,-2 0,-1 0,-2 -1,-3l0 -4zm23 -41l-5 1c-1,0 -3,1 -4,1 0,1 -1,1 -2,1 -1,1 -2,1 -3,2 0,1 0,0 -1,1 -2,2 -3,2 -5,4 -1,1 -1,1 -2,2l-6 7c0,0 0,0 0,1 0,0 0,0 0,0 0,1 -1,1 -1,2 0,1 0,1 -1,2 0,1 -1,3 -2,4 0,1 -1,3 -1,4 -1,6 -1,8 -1,14 0,1 1,3 1,5 0,1 1,3 1,4l2 5c1,1 0,0 1,1 1,0 1,1 1,2 0,0 0,1 1,1 0,1 0,0 1,1 1,0 1,1 1,1 1,1 1,1 1,1 0,0 0,0 1,0 0,0 0,0 0,0 1,1 0,0 1,1 0,0 3,2 3,3l3 2c1,0 1,1 2,1 1,0 2,1 3,1 1,0 2,1 2,1 1,0 2,0 3,1 1,0 2,0 2,1 1,0 3,0 4,1 6,1 9,1 15,0l4 -1 1 0c1,0 3,-1 4,-1 1,-1 4,-3 5,-3l0 0 5 -3c0,0 0,0 0,0 0,0 0,0 0,0 0,0 0,0 1,-1 0,-1 1,-1 2,-2l2 -2c0,-1 0,0 0,-1 0,0 0,0 0,0 1,-2 3,-4 5,-9 0,0 0,0 0,-1l0 -1c0,-1 1,-3 1,-4 1,-6 1,-9 1,-15 0,-1 -1,-3 0,-4l-1 -3c0,-1 -1,-2 -1,-3 0,-1 -2,-3 -2,-4 0,0 0,0 0,0 0,0 0,0 0,-1 0,-1 -2,-3 -2,-4 -1,-1 -2,-3 -2,-3 -1,0 -1,-1 -1,-2l-4 -3c0,0 0,0 0,0 0,0 0,0 0,0 0,0 0,0 -1,-1 -1,0 -1,-1 -2,-1l-1 -1c0,0 0,0 0,0 -1,0 -4,-2 -4,-2 -1,0 -4,-2 -4,-2l-5 -1c-1,0 0,0 -1,0 -1,0 -3,0 -4,0l-6 0 -3 0zm-55 3c0,0 0,0 -1,0 0,0 0,0 -1,0 -1,0 0,0 -1,1l-2 3c0,2 -1,3 0,5 1,1 2,2 2,3 1,0 0,0 1,0l2 1 2 0c4,0 6,-2 8,-5 0,-2 0,-2 0,-4 -1,-1 -1,-2 -1,-2l-1 -1c0,0 0,0 0,0l0 0c0,0 0,0 -1,0 0,0 -1,0 -1,0 -2,-1 -2,-1 -4,-1l-2 0z"/>
 </g>
</svg>
