<?xml version="1.0" encoding="UTF-8"?>
<!DOCTYPE svg PUBLIC "-//W3C//DTD SVG 1.1//EN" "http://www.w3.org/Graphics/SVG/1.1/DTD/svg11.dtd">
<!-- Creator: CorelDRAW 2017 -->
<svg xmlns="http://www.w3.org/2000/svg" xml:space="preserve" width="1in" height="1.06353in" version="1.1" style="shape-rendering:geometricPrecision; text-rendering:geometricPrecision; image-rendering:optimizeQuality; fill-rule:evenodd; clip-rule:evenodd"
viewBox="0 0 1066 1134"
 xmlns:xlink="http://www.w3.org/1999/xlink">
 <defs>
  <style type="text/css">
   <![CDATA[
    .fil0 {fill:#FFF212}
   ]]>
  </style>
 </defs>
 <g id="Layer_x0020_1">
  <metadata id="CorelCorpID_0Corel-Layer"/>
  <path class="fil0" d="M533 60c16,0 63,30 79,40 26,17 44,35 66,56l27 33c47,62 77,144 77,226 0,72 -6,52 14,108 11,32 62,158 66,177l-129 0 -7 8c-1,49 3,107 -3,152 -6,42 -35,61 -74,63 -10,1 -6,-1 -17,-1l-197 0c-17,0 -35,6 -61,-12 -15,-11 -26,-26 -30,-48 -7,-38 -2,-111 -2,-155l-8 -7 -129 -1c3,-14 10,-31 16,-44 6,-14 11,-28 17,-43 6,-15 10,-28 16,-43 35,-90 32,-62 32,-152 0,-91 41,-198 103,-259 22,-22 40,-39 65,-56 13,-9 66,-41 80,-41zm-70 461l-31 0 0 -83c48,0 72,-6 72,47 0,26 -15,36 -41,36zm-70 -98l0 199c0,27 39,20 39,5l0 -75c39,0 88,3 105,-40 18,-48 2,-107 -68,-107 -45,0 -75,-7 -75,18zm243 88l-34 0 0 -72c31,0 75,-7 75,36 0,10 -5,23 -11,28 -7,6 -19,8 -31,8zm-70 -93l0 210c0,16 36,18 36,3l0 -88 31 0 26 52c15,31 17,47 39,47 8,0 19,-13 16,-22l-29 -54c-3,-6 -4,-8 -7,-14 -4,-7 -6,-6 -7,-17 34,-8 41,-34 41,-67 0,-72 -80,-62 -135,-62 -6,0 -13,7 -13,13zm16 -375c13,0 29,-5 42,-7 106,-16 227,25 286,85 7,8 13,10 19,17l33 39c43,60 73,142 73,217 0,35 -11,90 -22,123 -10,27 -28,60 -42,103 -32,95 -29,86 -29,181 0,84 28,222 47,303l-347 0c-1,-11 -6,-26 -9,-38 -8,-31 -20,-90 -33,-110 60,0 105,4 140,-51 7,-11 15,-33 15,-50l0 -124 109 0c21,0 31,-24 31,-34 0,-14 -79,-198 -80,-220 -4,-71 8,-80 -16,-168 -23,-86 -75,-162 -145,-218 -6,-5 -9,-7 -16,-12l-56 -37zm-411 655c0,9 10,34 31,34l109 0 0 124c0,34 20,63 45,82 30,23 61,19 110,19 -13,19 -25,78 -32,108 -3,12 -8,28 -9,40l-347 0c11,-47 21,-94 29,-144 17,-101 17,-121 17,-221 0,-104 -89,-205 -93,-342 -1,-35 11,-91 22,-123 13,-38 40,-87 66,-115l17 -19c6,-7 12,-9 19,-17 68,-68 186,-99 285,-87 12,2 31,7 45,7 -6,9 -19,13 -36,24 -25,16 -62,45 -83,67l-40 51c-26,39 -46,79 -58,125 -19,69 -16,94 -16,163 0,19 -9,33 -14,48 -8,22 -66,169 -66,177zm-171 -323c0,75 3,104 30,172 6,16 12,24 18,39 19,54 46,109 46,180 0,113 -21,209 -43,314 -2,12 -19,56 5,56l386 0c15,0 28,-74 34,-96 17,-66 12,-83 70,-83 7,0 18,5 22,9 6,4 11,14 13,20 5,16 9,37 13,52 6,23 19,98 34,98l386 0c24,0 7,-43 5,-54 -22,-106 -44,-199 -44,-313 0,-142 93,-224 93,-357 0,-92 -12,-138 -52,-212 -24,-44 -69,-96 -110,-123 -11,-7 -16,-12 -28,-19 -48,-29 -116,-55 -178,-55 -53,0 -87,-1 -138,15 -52,15 -10,8 -84,-7 -55,-11 -134,-12 -188,4 -37,11 -66,23 -98,42 -39,23 -83,61 -110,97 -4,5 -6,9 -10,14 -39,52 -72,141 -72,208z"/>
 </g>
</svg>
