<?xml version="1.0" encoding="UTF-8"?>
<!DOCTYPE svg PUBLIC "-//W3C//DTD SVG 1.1//EN" "http://www.w3.org/Graphics/SVG/1.1/DTD/svg11.dtd">
<!-- Creator: CorelDRAW 2017 -->
<svg xmlns="http://www.w3.org/2000/svg" xml:space="preserve" width="4in" height="4.02169in" version="1.1" style="shape-rendering:geometricPrecision; text-rendering:geometricPrecision; image-rendering:optimizeQuality; fill-rule:evenodd; clip-rule:evenodd"
viewBox="0 0 222 223"
 xmlns:xlink="http://www.w3.org/1999/xlink">
 <defs>
  <style type="text/css">
   <![CDATA[
    .fil0 {fill:#FFF212}
   ]]>
  </style>
 </defs>
 <g id="Layer_x0020_1">
  <metadata id="CorelCorpID_0Corel-Layer"/>
  <path class="fil0" d="M14 30l29 0 0 -9c0,-1 1,-2 2,-2l14 0 0 -8c0,-6 5,-11 11,-11l43 0c6,0 11,5 11,11l0 8 14 0c1,0 2,1 2,2l0 9 28 0c8,0 14,6 14,14l0 16c-3,0 -6,0 -8,0l0 -16c0,-3 -3,-6 -6,-6l-28 0 0 11c0,1 -1,2 -2,2l-94 0c-1,0 -2,-1 -2,-2l0 -11 -29 0c-3,0 -6,3 -6,6l0 164c0,3 3,6 6,6l155 0c3,0 6,-3 6,-6l0 -25c3,0 6,0 8,0l0 25c0,8 -6,14 -14,14l-155 0c-8,0 -14,-6 -14,-14l0 -164c0,-8 6,-14 14,-14zm191 116c-1,-2 -3,-3 -5,-2 -2,1 -3,3 -2,5l12 36 -6 -5c-2,-1 -4,-1 -5,0 0,0 -1,1 -1,2l-2 9 -12 -32c-1,-2 -3,-3 -5,-2 -2,1 -3,3 -2,5l16 44c0,1 1,2 3,3 2,0 4,-1 4,-3l3 -16 11 9c1,1 2,1 4,1 2,-1 3,-3 2,-5l-16 -48zm-86 0c1,-2 3,-3 5,-2 2,1 3,3 2,5l-12 36 6 -5c2,-1 4,-1 5,0 0,0 1,1 1,2l2 9 12 -32c1,-2 3,-3 5,-2 2,1 3,3 2,5l-16 44c0,1 -1,2 -3,3 -2,0 -4,-1 -4,-3l-3 -16 -11 9c-1,1 -2,1 -4,1 -2,-1 -3,-3 -2,-5l16 -48zm46 -89l9 8 12 -3c2,0 4,1 4,3l4 12 12 4c2,1 3,3 2,5l-3 12 8 9c1,1 1,4 0,5l-8 9 3 12c0,2 -1,4 -3,4l-12 4 -4 12c-1,2 -3,3 -5,2l-12 -3 -9 8c-1,1 -4,1 -5,0l-9 -8 -12 3c-2,0 -4,-1 -4,-3l-4 -12 -12 -4c-2,-1 -3,-3 -2,-5l3 -12 -8 -9c-1,-1 -1,-4 0,-5l8 -9 -3 -12c0,-2 1,-4 3,-4l12 -4 4 -12c1,-2 3,-3 5,-2l12 3 9 -8c1,-1 4,-1 5,0zm-3 9l-9 8 -12 -3 -4 12 -12 4 3 12 -8 9 8 9 -3 12 12 4 4 12 12 -3 9 8 9 -8 12 3 4 -12 12 -4 -3 -12 8 -9 -8 -9 3 -12 -12 -4 -4 -12 -12 3 -9 -8zm0 12c17,0 30,14 30,30 0,17 -14,30 -30,30 -17,0 -30,-14 -30,-30 0,-17 14,-30 30,-30zm0 7c13,0 23,10 23,23 0,13 -10,23 -23,23 -13,0 -23,-10 -23,-23 0,-13 10,-23 23,-23zm-18 24c-1,-2 -1,-4 1,-5 2,-1 4,-1 5,1l7 9 16 -16c1,-1 4,-2 5,0 1,1 2,4 0,5l-19 19 0 0c-2,1 -4,1 -5,-1l-9 -12zm-65 -8c0,-2 2,-4 4,-4 2,0 4,2 4,4l0 18c0,2 -2,4 -4,4l-54 0c-2,0 -4,-2 -4,-4l0 -54c0,-2 2,-4 4,-4l54 0c2,0 4,2 4,4 0,2 -2,4 -4,4l-50 0 0 46 46 0 0 -14zm-59 94c-2,0 -4,-2 -4,-4 0,-2 2,-4 4,-4l72 0c2,0 4,2 4,4 0,2 -2,4 -4,4l-72 0zm0 -23c-2,0 -4,-2 -4,-4 0,-2 2,-4 4,-4l72 0c2,0 4,2 4,4 0,2 -2,4 -4,4l-72 0zm0 -23c-2,0 -4,-2 -4,-4 0,-2 2,-4 4,-4l72 0c2,0 4,2 4,4 0,2 -2,4 -4,4l-72 0zm22 -59c-1,-2 0,-4 1,-5 2,-1 4,0 5,1l7 13 28 -20c2,-1 4,-1 5,1 1,2 1,4 -1,5l-31 23c0,0 0,0 -1,0 -2,1 -4,0 -5,-1l-9 -17zm24 -70l51 0 0 -4c0,-4 -3,-8 -8,-8l-36 0c-4,0 -8,3 -8,8l0 4zm-17 7l85 0 0 18 -85 0 0 -18z"/>
 </g>
</svg>
