<?xml version="1.0" encoding="UTF-8"?>
<!DOCTYPE svg PUBLIC "-//W3C//DTD SVG 1.1//EN" "http://www.w3.org/Graphics/SVG/1.1/DTD/svg11.dtd">
<!-- Creator: CorelDRAW 2017 -->
<svg xmlns="http://www.w3.org/2000/svg" xml:space="preserve" width="4in" height="4.41484in" version="1.1" style="shape-rendering:geometricPrecision; text-rendering:geometricPrecision; image-rendering:optimizeQuality; fill-rule:evenodd; clip-rule:evenodd"
viewBox="0 0 542 598"
 xmlns:xlink="http://www.w3.org/1999/xlink">
 <defs>
  <style type="text/css">
   <![CDATA[
    .fil0 {fill:#FFF212}
   ]]>
  </style>
 </defs>
 <g id="Layer_x0020_1">
  <metadata id="CorelCorpID_0Corel-Layer"/>
  <path class="fil0" d="M396 345c15,-3 34,1 47,5 37,12 67,48 71,90 7,62 -38,111 -94,119 -61,8 -116,-40 -120,-94 -3,-33 7,-62 25,-82 22,-25 39,-32 71,-37zm-148 226l-4 0c-24,-4 -27,-6 -41,-21 -6,-6 -91,-91 -93,-95 -3,-2 -6,-5 -8,-8 -2,-1 -2,-1 -3,-3 -2,-1 -2,-1 -3,-3 -3,-1 -10,-9 -12,-11 -32,-33 -51,-53 -57,-109 -1,-33 0,-67 0,-100 0,-33 0,-66 0,-100 0,-16 -2,-31 5,-44 15,-27 39,-26 69,-30 28,-4 57,-9 86,-13l43 -6c23,-4 60,5 87,9 29,4 59,8 87,13 15,2 27,2 38,11 8,7 18,19 18,31 0,10 1,11 0,21 -4,47 0,135 0,189 7,2 21,9 26,12 0,0 0,-1 1,-1l1 -2c0,0 0,0 0,-1l0 -170c0,-7 0,-49 -1,-53 -1,-1 -1,-1 -1,-2l-1 -5c-5,-16 -13,-30 -24,-39 -16,-13 -24,-14 -46,-18 -33,-6 -79,-10 -109,-16 -18,-2 -37,-6 -54,-8 -21,-2 -37,4 -56,5 -19,4 -40,6 -59,9 -21,3 -41,6 -61,9 -24,4 -35,5 -52,18 -12,10 -24,28 -26,46l-1 5c0,11 -1,212 0,228 4,48 22,85 54,118 6,6 26,25 28,30 3,0 25,25 29,29 8,8 73,75 81,81 2,1 7,5 8,6 6,3 10,6 17,8 8,3 18,4 20,5 6,-1 13,-1 20,-2 7,-1 10,-2 17,-5 9,-4 20,-11 26,-18l-18 -19c-4,2 -15,15 -26,14 -1,1 0,0 -2,1 -1,0 -2,1 -3,1 -2,0 -3,0 -5,1zm5 -247l9 0 11 -1 6 -1c14,-3 31,-9 44,-16 14,-8 14,4 23,0 4,-2 7,-3 11,-4l10 -3c0,0 0,0 1,0 -5,-15 -29,-26 -48,-20 -13,4 -16,9 -37,15 -4,1 -10,2 -13,4l-8 0c-18,1 -27,1 -44,-2 -38,-8 -45,-27 -73,-16 -20,8 -32,37 -38,56 -2,6 -4,12 -5,18 -5,24 -10,15 5,31 4,5 8,7 13,11l27 20 21 10c7,3 16,6 24,9 19,6 36,7 58,8l4 -27c-23,1 -47,-3 -68,-11 -4,-1 -16,-8 -18,-7l-3 -3c-1,-1 -2,-1 -3,-2 -8,-4 -34,-22 -35,-27 -2,-7 13,-41 18,-51 9,-16 14,-15 28,-8 14,7 38,15 53,16l2 0c7,0 22,2 27,0zm142 149c-4,-2 -6,-6 -9,-8l-9 -8c-2,-2 -4,-4 -6,-6 -12,-11 -27,-1 -24,12 1,6 7,9 11,13l28 26c3,2 7,7 10,9 4,-2 35,-32 41,-38l20 -19c4,-3 18,-15 20,-20 5,-12 -9,-22 -19,-17 -3,2 -7,6 -10,9l-52 48zm-161 -364c40,-8 75,23 80,58 7,40 -23,75 -58,80 -40,6 -75,-22 -80,-57 -3,-23 3,-41 14,-55 12,-15 25,-22 44,-25zm-85 79c6,51 51,92 106,86 51,-6 92,-50 86,-106 -5,-52 -53,-93 -106,-86 -56,7 -93,55 -87,106zm156 176c0,2 -8,11 -11,15 -28,43 -29,101 -2,144 13,21 32,39 56,50 78,38 176,-7 192,-99 5,-31 -2,-64 -15,-87 -23,-39 -50,-49 -53,-53 -14,-4 -16,-10 -44,-14 -76,-12 -117,41 -123,44z"/>
 </g>
</svg>
