<?xml version="1.0" encoding="UTF-8"?>
<!DOCTYPE svg PUBLIC "-//W3C//DTD SVG 1.1//EN" "http://www.w3.org/Graphics/SVG/1.1/DTD/svg11.dtd">
<!-- Creator: CorelDRAW 2017 -->
<svg xmlns="http://www.w3.org/2000/svg" xml:space="preserve" width="4in" height="4.07115in" version="1.1" style="shape-rendering:geometricPrecision; text-rendering:geometricPrecision; image-rendering:optimizeQuality; fill-rule:evenodd; clip-rule:evenodd"
viewBox="0 0 333 339"
 xmlns:xlink="http://www.w3.org/1999/xlink">
 <defs>
  <style type="text/css">
   <![CDATA[
    .fil0 {fill:#FFF212}
   ]]>
  </style>
 </defs>
 <g id="Layer_x0020_1">
  <metadata id="CorelCorpID_0Corel-Layer"/>
  <path class="fil0" d="M50 153l0 0c1,-3 3,-8 7,-12 2,-2 0,-2 0,-10 0,-11 5,-22 14,-29 5,-5 11,-6 11,-7 1,0 8,-2 10,-2 3,-12 5,-17 14,-26 16,-14 44,-12 58,8 1,2 1,1 2,2l2 -2c1,-1 1,-2 2,-3 2,-1 3,-4 7,-7l1 -1c1,0 5,-3 8,-4 10,-4 22,-3 32,1 9,4 15,11 19,20 2,4 2,6 3,10l7 1c1,1 3,1 4,2 11,5 26,24 23,41 -1,5 -1,2 3,8 9,14 8,33 -2,46 -1,2 -2,2 -2,4 3,18 -7,35 -24,42 -3,1 -5,2 -8,2 -2,0 -3,0 -3,3l-1 6c-1,3 -2,5 -3,7 -2,4 -5,8 -9,11 -4,3 -7,5 -13,7 -19,6 -19,-4 -15,-7 3,-2 12,1 22,-8 22,-25 -1,-40 1,-47 0,-2 2,-4 3,-4 7,-3 13,14 14,14 0,0 0,0 1,1l1 4 1 4c6,0 13,-5 16,-8 4,-4 7,-9 8,-16 1,-7 0,-5 -4,-3 -2,1 -7,3 -10,2 -3,-2 -4,-6 -1,-8 1,-1 2,-1 4,-2 22,-7 27,-35 12,-49 -3,-3 -7,-5 -11,-7l-5 -1c-1,-2 -2,-3 -1,-6 3,-7 14,1 16,1 1,-2 -1,-9 -2,-11 -2,-6 -7,-12 -13,-15 -2,-1 -8,-4 -10,-3 -1,12 -9,19 -9,21 -1,0 -1,2 -5,2 -2,0 -4,-1 -5,-3 -2,-4 2,-7 4,-10 15,-21 -5,-53 -32,-45 -4,1 -7,3 -10,5 -12,10 -12,19 -12,33 0,10 0,20 0,30 0,2 0,24 0,26 0,0 0,1 -1,1l-1 1c-2,0 -1,1 -3,1 -2,0 -2,0 -3,-1 0,0 0,0 0,0 0,0 0,0 0,0 -2,-3 -1,-6 -1,-11l0 -39c0,-16 2,-30 -12,-41 -12,-9 -27,-8 -38,2 -5,4 -8,11 -9,18 -1,8 3,14 6,20 0,0 0,0 0,0l1 1c0,1 0,0 1,1l1 2c1,1 1,2 1,3 0,2 0,3 -1,3 -1,2 -6,2 -7,0 -5,-5 -11,-22 -11,-22 -9,1 -19,9 -23,18 -1,2 -3,9 -2,11 3,0 9,-5 14,-3 2,1 3,4 2,7 -2,4 -9,2 -18,11 -1,1 -3,4 -5,7l0 0c0,0 0,1 -1,1 -1,2 -1,3 -1,4 -1,1 -1,3 -2,4 0,1 0,1 0,2 0,0 0,1 0,1 0,0 0,0 0,0 0,0 0,1 0,1 0,0 0,0 0,0 0,0 0,1 0,1 0,1 0,1 0,2 1,0 0,-1 2,7l0 0c0,1 1,1 1,2l0 0c3,8 10,14 17,16 1,0 3,1 4,1 2,1 4,5 2,7 -4,5 -11,0 -16,-2 0,9 3,14 7,19 3,4 11,10 17,9 2,-8 3,-13 9,-20 1,-1 2,-3 4,-3 4,-1 9,4 4,10 -1,1 -1,1 -2,2 -14,20 0,46 23,47 7,0 7,5 6,8 -4,7 -31,0 -40,-21 -2,-4 -3,-10 -4,-11 -1,-1 -4,-1 -5,-1 -2,0 -4,-1 -5,-2l-4 -2c-7,-4 -13,-11 -16,-18 -1,-3 -3,-7 -3,-11 0,-2 0,-4 0,-6 0,-8 3,-4 -2,-10 -2,-2 -4,-6 -5,-9l0 0c-3,-7 -3,-15 -2,-23 0,0 0,0 0,-1 0,0 0,0 0,-1 0,-1 1,-2 1,-3zm11 111c-1,1 -1,1 -2,2 -1,1 -1,0 -2,2 -1,0 -1,0 -1,1l-2 2c-1,1 -3,3 -4,4l-2 3c-1,6 4,8 6,7 2,-1 13,-12 15,-14 2,-2 6,-5 7,-8 1,-1 1,-1 0,-2 0,-1 0,-2 -1,-3 -2,-1 -4,-2 -6,-1 -1,1 -2,2 -3,3 -2,1 -3,3 -5,4zm100 64c-3,0 -5,0 -6,2 -1,2 -1,5 1,6 3,2 11,1 16,1 10,0 7,-7 6,-9 -3,-3 -12,-2 -16,-2zm54 -97c-2,-2 -5,-2 -7,0 -2,2 0,4 -3,7 -2,3 -5,1 -7,3 -7,5 3,14 13,5 8,-9 4,-15 4,-16zm-19 -144c1,4 3,3 6,4 3,1 4,3 4,6 1,6 10,6 10,-2 -1,-15 -22,-19 -20,-8zm-60 1c1,-3 0,-6 -3,-7 -5,-2 -16,3 -17,12 -1,10 8,10 10,4 1,-4 0,-5 4,-7 3,-1 5,0 7,-3zm-20 150c2,10 14,14 18,11 2,-1 3,-4 2,-7 -2,-3 -5,-2 -7,-3 -3,-2 -2,-4 -3,-7 -3,-5 -11,-3 -9,6zm159 44c1,1 3,2 3,2 1,0 4,0 4,0 0,0 0,0 0,0 0,0 0,0 0,0 2,-6 2,-1 2,-6 -1,-1 -4,-5 -6,-6 -2,-2 -4,-4 -6,-6 -5,-5 -9,-11 -13,-9 -3,1 -4,5 -2,8 1,2 17,16 17,18zm22 -118c0,4 1,7 5,7 7,0 14,0 20,0 3,0 7,0 9,-1 2,-2 3,-5 1,-7 -2,-3 -5,-2 -8,-2l-20 0c-5,0 -4,0 -7,3zm-125 -133l0 -26c0,-6 -7,-7 -9,-2 -1,3 -1,12 -1,16 0,4 -1,13 1,16 2,4 9,2 9,-3zm-123 25c1,0 5,5 6,6 3,2 9,10 13,13 5,4 11,-2 7,-7l-16 -16c-2,-2 -4,-6 -8,-4 -1,0 -3,2 -3,3 0,3 0,4 1,5zm220 16c1,-1 6,-7 8,-8 1,-2 8,-7 9,-10 1,-6 -4,-9 -9,-4l-12 12c-4,4 -8,7 -6,11 1,1 2,2 3,3 5,1 5,-3 8,-4zm-235 90c-3,-1 -26,-1 -30,0 -4,2 -5,7 0,9 2,1 12,1 15,1 8,0 18,2 18,-5 0,-3 -1,-3 -3,-5zm138 121c-7,0 -13,0 -20,0 -5,0 -15,-1 -17,2 -2,2 -2,5 0,7 2,2 5,1 8,1 6,0 52,1 54,-1 4,-2 3,-9 -3,-9l-23 0zm-36 31c-1,1 -1,1 -2,2 -1,3 0,5 2,7 2,1 5,1 8,1l37 0c4,0 15,1 17,-1 2,-2 2,-5 1,-7 -2,-2 -4,-2 -7,-2 -9,0 -53,-1 -56,1zm6 -6l51 0c4,0 3,0 6,-1 0,-1 2,-2 1,-5 -1,-6 -9,-4 -14,-4 -8,0 -16,0 -24,0 -8,0 -16,0 -24,0 -5,0 -7,5 -4,8 0,1 1,1 2,1 1,1 3,1 5,1zm50 -123c0,-3 3,-9 5,-11 1,0 2,2 3,3 4,5 -4,7 -8,8zm-49 0c-2,0 -7,-2 -8,-3 -3,-3 2,-7 3,-8 2,1 5,8 5,11zm47 11c3,0 8,-2 11,-3 12,-6 14,-15 6,-24 -5,-6 -12,-7 -18,-1 -5,6 -6,17 -8,19 -9,2 -18,1 -27,0 -1,-5 -4,-16 -8,-19 -6,-7 -13,-4 -18,1 -13,15 3,25 17,27 4,27 4,46 5,72 0,3 0,6 4,7 4,1 6,-2 6,-5 0,-2 0,-9 0,-11 0,-7 0,-14 -1,-21 0,-6 -1,-14 -1,-20l-2 -20c8,1 15,1 23,0 0,7 -2,14 -2,20 -1,10 -3,44 -2,53 0,5 10,8 10,-3 0,-8 0,-25 1,-32 1,-13 1,-28 4,-40z"/>
 </g>
</svg>
