<?xml version="1.0" encoding="UTF-8"?>
<!DOCTYPE svg PUBLIC "-//W3C//DTD SVG 1.1//EN" "http://www.w3.org/Graphics/SVG/1.1/DTD/svg11.dtd">
<!-- Creator: CorelDRAW 2017 -->
<svg xmlns="http://www.w3.org/2000/svg" xml:space="preserve" width="4in" height="4in" version="1.1" style="shape-rendering:geometricPrecision; text-rendering:geometricPrecision; image-rendering:optimizeQuality; fill-rule:evenodd; clip-rule:evenodd"
viewBox="0 0 223 223"
 xmlns:xlink="http://www.w3.org/1999/xlink">
 <defs>
  <style type="text/css">
   <![CDATA[
    .fil0 {fill:#FFF212}
   ]]>
  </style>
 </defs>
 <g id="Layer_x0020_1">
  <metadata id="CorelCorpID_0Corel-Layer"/>
  <path class="fil0" d="M24 32l2 0 0 -9c0,-13 11,-24 24,-24l149 0c13,0 24,11 24,24l0 176c0,13 -11,24 -24,24l-173 0 -2 0c-13,0 -24,-11 -24,-24l0 -142c0,-13 11,-24 24,-24zm16 155c0,4 -3,7 -7,7l0 0c-4,0 -7,-3 -7,-7 0,-45 0,-92 0,-138l-8 0c-3,0 -6,3 -6,6l0 149c0,3 3,6 6,6l8 0 0 0 27 0 149 -1c3,0 6,-3 6,-6l0 -181c0,-3 -3,-6 -6,-6l-156 0c-3,0 -6,3 -6,6 0,55 0,110 0,165zm25 -161l43 0c5,0 10,4 10,10l0 43c0,5 -4,10 -10,10l-43 0c-5,0 -10,-4 -10,-10l0 -43c0,-5 4,-10 10,-10zm4 14l35 0 0 35 -35 0 0 -35zm65 8c-1,0 -3,-1 -3,-3 0,-1 1,-3 3,-3l57 0c1,0 3,1 3,3 0,1 -1,3 -3,3l-57 0zm0 21c-1,0 -3,-1 -3,-3 0,-1 1,-3 3,-3l57 0c1,0 3,1 3,3 0,1 -1,3 -3,3l-57 0zm0 21c-1,0 -3,-1 -3,-3 0,-1 1,-3 3,-3l57 0c1,0 3,1 3,3 0,1 -1,3 -3,3l-57 0zm-78 21c-1,0 -3,-1 -3,-3 0,-1 1,-3 3,-3l135 0c1,0 3,1 3,3 0,1 -1,3 -3,3l-135 0zm0 21c-1,0 -3,-1 -3,-3 0,-1 1,-3 3,-3l135 0c1,0 3,1 3,3 0,1 -1,3 -3,3l-135 0zm78 21c-1,0 -3,-1 -3,-3 0,-1 1,-3 3,-3l57 0c1,0 3,1 3,3 0,1 -1,3 -3,3l-57 0zm-78 0c-1,0 -3,-1 -3,-3 0,-1 1,-3 3,-3l57 0c1,0 3,1 3,3 0,1 -1,3 -3,3l-57 0zm78 21c-1,0 -3,-1 -3,-3 0,-1 1,-3 3,-3l57 0c1,0 3,1 3,3 0,1 -1,3 -3,3l-57 0zm-78 0c-1,0 -3,-1 -3,-3 0,-1 1,-3 3,-3l57 0c1,0 3,1 3,3 0,1 -1,3 -3,3l-57 0zm78 21c-1,0 -3,-1 -3,-3 0,-1 1,-3 3,-3l57 0c1,0 3,1 3,3 0,1 -1,3 -3,3l-57 0zm-78 0c-1,0 -3,-1 -3,-3 0,-1 1,-3 3,-3l57 0c1,0 3,1 3,3 0,1 -1,3 -3,3l-57 0z"/>
 </g>
</svg>
