<?xml version="1.0" encoding="UTF-8"?>
<!DOCTYPE svg PUBLIC "-//W3C//DTD SVG 1.1//EN" "http://www.w3.org/Graphics/SVG/1.1/DTD/svg11.dtd">
<!-- Creator: CorelDRAW 2017 -->
<svg xmlns="http://www.w3.org/2000/svg" xml:space="preserve" width="4in" height="3.26182in" version="1.1" style="shape-rendering:geometricPrecision; text-rendering:geometricPrecision; image-rendering:optimizeQuality; fill-rule:evenodd; clip-rule:evenodd"
viewBox="0 0 6162 5025"
 xmlns:xlink="http://www.w3.org/1999/xlink">
 <defs>
  <style type="text/css">
   <![CDATA[
    .fil0 {fill:#FFF212;fill-rule:nonzero}
   ]]>
  </style>
 </defs>
 <g id="Layer_x0020_1">
  <metadata id="CorelCorpID_0Corel-Layer"/>
  <g id="_2757747605440">
   <path class="fil0" d="M2767 2898c-44,-61 -116,-99 -194,-99 -18,0 -36,2 -54,6l-177 41c-48,11 -90,36 -121,70 -31,34 -52,76 -60,122 -7,41 20,79 61,86 41,7 79,-20 86,-61 3,-17 11,-33 23,-46 12,-13 27,-22 45,-26l178 -41c7,-2 13,-2 20,-2 28,0 56,14 72,37 24,33 71,41 104,17 33,-24 41,-71 17,-104z"/>
   <path class="fil0" d="M3466 2736c-44,-61 -116,-99 -194,-99 -18,0 -36,2 -54,6l-177 41c-48,11 -90,36 -121,70 -31,34 -52,76 -60,122 -7,41 20,79 61,86 41,7 79,-20 86,-61 3,-17 11,-33 23,-46 12,-13 27,-22 45,-26l177 -41c7,-2 13,-2 20,-2 28,0 56,14 72,37 24,33 71,41 104,17 33,-24 41,-71 17,-104z"/>
   <path class="fil0" d="M4117 2526c-41,-32 -92,-50 -146,-50 -18,0 -36,2 -54,6l-177 41c-48,11 -90,36 -121,70 -31,34 -52,76 -60,122 -7,41 20,79 61,86 41,7 79,-20 86,-61 3,-17 11,-33 23,-46 12,-13 27,-22 45,-26l177 -41c7,-2 13,-2 20,-2 20,0 39,7 55,19 33,25 80,19 105,-13 25,-33 19,-80 -13,-105l0 0z"/>
   <path class="fil0" d="M3641 3108c25,34 58,61 95,78 38,17 82,0 99,-37 17,-38 0,-82 -37,-99 -14,-6 -27,-17 -36,-29 -24,-34 -71,-41 -104,-17 -33,24 -41,71 -17,104z"/>
   <path class="fil0" d="M2943 3270c44,61 116,99 193,99 18,0 36,-2 54,-6l177 -41c48,-11 90,-36 121,-70 31,-34 52,-76 60,-122 7,-41 -20,-79 -61,-86 -41,-7 -79,20 -86,61 -3,17 -11,33 -23,46 -12,13 -27,22 -45,26l-177 41c-7,2 -14,2 -20,2 -28,0 -56,-14 -72,-37 -24,-33 -71,-41 -104,-17 -33,24 -41,71 -17,104z"/>
   <path class="fil0" d="M2244 3431c44,61 116,99 193,99 18,0 36,-2 54,-6l177 -41c48,-11 90,-36 121,-70 31,-34 52,-76 60,-122 7,-41 -20,-79 -61,-86 -41,-7 -79,20 -86,61 -3,17 -11,33 -23,46 -12,13 -27,22 -45,26l-178 41c-7,2 -13,2 -20,2 -28,0 -56,-14 -72,-37 -24,-33 -71,-41 -104,-17 -33,24 -41,71 -17,104z"/>
   <path class="fil0" d="M3967 3349l0 -74c-19,0 -38,-5 -55,-15l0 0 0 0c-34,-20 -53,-55 -53,-93 0,-15 3,-29 9,-44l1 -2 1 -2 4 -8 1 -1 533 -908 -243 -422 0 0c-5,-9 -9,-24 -9,-43 0,-17 3,-36 8,-53 5,-17 12,-33 18,-41l1 -1 28 -48 360 -623 -383 51 -493 551 0 0c-21,23 -51,36 -82,36 -27,0 -53,-10 -72,-27l0 0c-24,-22 -36,-51 -36,-82 0,-26 9,-52 27,-72l0 0 475 -530c47,-52 111,-86 181,-96l521 -69 196 -27 -53 -95c-26,-46 -40,-98 -40,-153 0,-86 35,-164 91,-221 57,-57 134,-91 221,-92 86,0 164,35 221,92 57,57 91,134 92,221 0,83 -32,157 -85,214 -53,56 -125,92 -206,98l-97 6 214 604 632 -81 -1 0c5,-1 10,-1 14,-1 29,0 58,12 78,33 20,21 30,46 31,76l0 3 0 0c-1,25 -11,49 -29,69 -18,19 -43,33 -71,36l-707 90 0 0c-5,1 -10,1 -15,1 -49,0 -94,-31 -110,-78l0 0 -104 -294 -357 617 868 145 0 0c28,20 45,54 45,89 0,15 -3,29 -9,43l0 0 -386 888 0 0c-17,40 -57,66 -99,66 -14,0 -28,-3 -43,-9l1 0c-21,-9 -37,-24 -49,-41 -11,-18 -18,-38 -18,-59 0,-14 3,-29 9,-43l318 -732 -618 -86 2 87 0 2c0,19 -5,38 -15,55l0 0 -451 768 0 0 -79 135 64 37 0 -74 -43 0 -56 95 0 0c-19,33 -56,54 -94,54l0 147c91,0 175,-48 221,-126l0 -1 34 -59 -64 -37 0 74 43 0 101 -172 451 -768 0 0c24,-40 36,-86 36,-131l0 -5 -74 1 -10 73 340 48 -241 554 0 0c-14,33 -21,68 -21,102 0,50 14,98 41,139 27,41 66,76 114,97l0 0 0 0c32,14 66,21 101,21 102,0 194,-61 235,-155l0 0 387 -889 0 0c14,-33 21,-67 21,-101 0,-80 -37,-159 -106,-208l-14 -10 -14 -10 -693 -116 170 -295 -64 -37 -70 25 51 143 0 0c38,105 137,176 249,176 11,0 22,-1 34,-2l0 0 707 -90c63,-8 120,-38 160,-82 41,-44 67,-102 69,-165l0 0 0 -7c0,-67 -26,-131 -72,-179 -48,-50 -115,-77 -184,-78 -10,0 -21,1 -31,2l0 0 -515 66 -142 -400 -70 25 5 74c120,-8 227,-62 304,-144 77,-82 125,-193 125,-315 0,-254 -206,-459 -460,-460 -254,0 -459,206 -460,460 0,80 21,157 59,225l64 -36 -10 -73 -88 12 0 0 -521 69c-105,14 -201,65 -272,143l-475 530 0 0c-43,49 -64,110 -64,170 0,70 29,141 85,191l0 0 0 0c47,42 108,65 171,65 73,0 142,-31 191,-85l456 -510 32 -4 -210 363 0 0 -27 47 64 37 -63 -39c-14,23 -25,49 -34,78 -8,29 -14,61 -14,95 0,38 7,78 29,117l200 348 -489 834 64 37 -62 -39c-8,13 -14,26 -17,36l69 26 -68 -29c-14,33 -21,68 -21,102 0,88 46,173 126,220l0 0c39,23 84,35 130,35l0 -74z"/>
   <path class="fil0" d="M3967 3349l0 -74c-19,0 -38,-5 -55,-15l0 0 0 0c-34,-20 -53,-55 -53,-93 0,-15 3,-29 9,-44l1 -2 1 -2 4 -8 1 -1 533 -908 -243 -422 0 0c-5,-9 -9,-24 -9,-43 0,-17 3,-36 8,-53 5,-17 12,-33 18,-41l1 -1 28 -48 360 -623 -383 51 -493 551 0 0c-21,23 -51,36 -82,36 -27,0 -53,-10 -72,-27l0 0c-24,-22 -36,-51 -36,-82 0,-26 9,-52 27,-72l0 0 475 -530c47,-52 111,-86 181,-96l521 -69 196 -27 -53 -95c-26,-46 -40,-98 -40,-153 0,-86 35,-164 91,-221 57,-57 134,-91 221,-92 86,0 164,35 221,92 57,57 91,134 92,221 0,83 -32,157 -85,214 -53,56 -125,92 -206,98l-97 6 214 604 632 -81 -1 0c5,-1 10,-1 14,-1 29,0 58,12 78,33 20,21 30,46 31,76l0 3 0 0c-1,25 -11,49 -29,69 -18,19 -43,33 -71,36l-707 90 0 0c-5,1 -10,1 -15,1 -49,0 -94,-31 -110,-78l0 0 -104 -294 -357 617 868 145 0 0c28,20 45,54 45,89 0,15 -3,29 -9,43l0 0 -386 888 0 0c-17,40 -57,66 -99,66 -14,0 -28,-3 -43,-9l1 0c-21,-9 -37,-24 -49,-41 -11,-18 -18,-38 -18,-59 0,-14 3,-29 9,-43l318 -732 -618 -86 2 87 0 2c0,19 -5,38 -15,55l0 0 -451 768 0 0 -79 135 64 37 0 -74 -43 0 -56 95 0 0c-19,33 -56,54 -94,54l0 147c91,0 175,-48 221,-126l0 -1 34 -59 -64 -37 0 74 43 0 101 -172 451 -768 0 0c24,-40 36,-86 36,-131l0 -5 -74 1 -10 73 340 48 -241 554 0 0c-14,33 -21,68 -21,102 0,50 14,98 41,139 27,41 66,76 114,97l0 0 0 0c32,14 66,21 101,21 102,0 194,-61 235,-155l0 0 387 -889 0 0c14,-33 21,-67 21,-101 0,-80 -37,-159 -106,-208l-14 -10 -14 -10 -693 -116 170 -295 -64 -37 -70 25 51 143 0 0c38,105 137,176 249,176 11,0 22,-1 34,-2l0 0 707 -90c63,-8 120,-38 160,-82 41,-44 67,-102 69,-165l0 0 0 -7c0,-67 -26,-131 -72,-179 -48,-50 -115,-77 -184,-78 -10,0 -21,1 -31,2l0 0 -515 66 -142 -400 -70 25 5 74c120,-8 227,-62 304,-144 77,-82 125,-193 125,-315 0,-254 -206,-459 -460,-460 -254,0 -459,206 -460,460 0,80 21,157 59,225l64 -36 -10 -73 -88 12 0 0 -521 69c-105,14 -201,65 -272,143l-475 530 0 0c-43,49 -64,110 -64,170 0,70 29,141 85,191l0 0 0 0c47,42 108,65 171,65 73,0 142,-31 191,-85l456 -510 32 -4 -210 363 0 0 -27 47 64 37 -63 -39c-14,23 -25,49 -34,78 -8,29 -14,61 -14,95 0,38 7,78 29,117l200 348 -489 834 64 37 -62 -39c-8,13 -14,26 -17,36l69 26 -68 -29c-14,33 -21,68 -21,102 0,88 46,173 126,220l0 0c39,23 84,35 130,35l0 -74z"/>
   <path class="fil0" d="M616 5008l-50 -72 37 80c2,-1 5,-2 13,-7l-50 -72 37 80 -24 -51 20 53c0,0 0,0 4,-2l-24 -51 20 53c1,0 11,-4 24,-8 53,-17 175,-54 347,-105 602,-180 1816,-538 2880,-850 532,-156 1026,-301 1387,-407 181,-53 328,-96 430,-126 102,-30 159,-47 159,-47 49,-14 77,-66 63,-114 -14,-49 -66,-77 -114,-63 0,0 -1301,381 -2607,766 -653,192 -1306,385 -1799,531 -246,73 -452,135 -598,178 -73,22 -130,40 -171,52 -20,6 -36,11 -48,15 -6,2 -11,4 -15,5l-7 3 -6 2c-3,1 -6,2 -14,8 -42,29 -52,87 -23,128 29,42 87,52 128,23z"/>
   <path class="fil0" d="M2067 3319l-74 0c0,255 -103,485 -270,653 -167,167 -398,270 -653,270 -255,0 -485,-103 -653,-270 -167,-167 -270,-397 -270,-653 0,-255 103,-485 270,-653 167,-167 398,-270 653,-270 255,0 485,103 653,270 167,167 270,398 270,653l148 0c0,-591 -479,-1070 -1070,-1070 -591,0 -1070,479 -1070,1070 0,591 479,1070 1070,1070 591,0 1070,-479 1070,-1070l-74 0z"/>
   <path class="fil0" d="M2354 3120l-307 71c-40,9 -65,49 -56,90 9,40 49,65 90,56l307 -71c40,-9 65,-49 56,-90 -9,-40 -49,-65 -90,-56z"/>
   <path class="fil0" d="M3053 2958l-439 101c-40,9 -65,49 -56,90 9,40 49,65 90,56l439 -102c40,-9 65,-49 56,-90 -9,-40 -49,-65 -90,-56z"/>
   <path class="fil0" d="M3751 2797l-439 101c-40,9 -65,49 -56,90 9,40 49,65 90,56l439 -101c40,-9 65,-49 56,-90 -9,-40 -49,-65 -90,-56z"/>
   <path class="fil0" d="M4019 2815l238 137c36,21 81,8 102,-27 21,-36 8,-81 -27,-102l-238 -137c-36,-21 -81,-8 -102,27 -21,36 -8,81 27,102z"/>
   <path class="fil0" d="M3969 2894l238 137c36,21 81,8 102,-27 21,-36 8,-81 -27,-102l-238 -137c-36,-21 -81,-8 -102,27 -21,36 -8,81 27,102z"/>
  </g>
 </g>
</svg>
