<?xml version="1.0" encoding="UTF-8"?>
<!DOCTYPE svg PUBLIC "-//W3C//DTD SVG 1.1//EN" "http://www.w3.org/Graphics/SVG/1.1/DTD/svg11.dtd">
<!-- Creator: CorelDRAW 2017 -->
<svg xmlns="http://www.w3.org/2000/svg" xml:space="preserve" width="4in" height="5.18138in" version="1.1" style="shape-rendering:geometricPrecision; text-rendering:geometricPrecision; image-rendering:optimizeQuality; fill-rule:evenodd; clip-rule:evenodd"
viewBox="0 0 716 928"
 xmlns:xlink="http://www.w3.org/1999/xlink">
 <defs>
  <style type="text/css">
   <![CDATA[
    .fil0 {fill:#FFF212}
   ]]>
  </style>
 </defs>
 <g id="Layer_x0020_1">
  <metadata id="CorelCorpID_0Corel-Layer"/>
  <path class="fil0" d="M273 584c2,-3 4,-2 11,-2 37,0 131,-2 154,2 0,7 -10,21 -14,23 -1,2 -1,3 -3,5 0,0 -1,1 -2,2 -2,1 -1,1 -2,1 -2,4 -7,8 -12,10 -1,2 -5,4 -8,5 -4,4 -16,8 -21,9 -4,1 -9,2 -14,2 -4,2 -24,1 -28,-2 -4,0 -11,-2 -14,-4 -4,-1 -14,-6 -17,-10l-2 -2c-2,-1 -1,0 -3,-2 -4,-4 -12,-11 -14,-16 -3,-1 -1,0 -1,-2 -5,-3 -8,-11 -9,-17l-1 -2zm-214 -281l0 -19 0 -20 0 -18 0 -20 0 -17c0,-12 0,-24 0,-36 0,-8 0,-8 4,-14 1,-2 2,-4 3,-5 2,-3 2,-3 4,-5 1,-2 -1,0 1,-2 2,-2 1,-1 2,-1 1,-2 1,-2 4,-4 1,-1 3,-2 5,-3 4,-2 7,-3 12,-4 3,-2 17,-3 22,-5 7,-3 10,-7 14,-14 1,-4 1,-4 5,-4l59 -1c3,1 1,-1 3,3 2,2 3,4 4,6 2,3 4,4 5,6 10,4 13,4 26,5 12,0 46,2 56,-2 4,-2 6,-4 8,-6 2,-2 2,-2 3,-5l3 -4 0 0 6 -17c0,-1 1,-2 1,-3 1,-1 1,-1 1,-2 0,-4 9,-28 11,-33l4 0 5 -1c24,-2 150,-1 152,0 4,0 5,-1 8,1l3 1 5 15c1,2 6,15 6,18 3,3 5,10 6,15 2,5 4,9 7,13 6,9 17,9 31,10l61 1c5,0 15,-1 18,2 4,1 14,7 15,10 3,2 5,4 7,7 2,1 2,2 3,3 2,2 2,2 2,5 1,1 1,-1 1,3l1 216 0 17 0 21 0 17c0,14 1,54 -3,60 0,5 -7,14 -10,15 -2,3 0,1 -4,3 -1,2 -4,3 -6,5 -3,2 -4,2 -8,2 -8,6 -429,3 -476,3l-18 0c-7,0 -27,1 -32,-2l-6 0c-7,-1 -15,-4 -19,-10l0 0c-3,-2 -2,-1 -4,-4 -1,-1 -2,-3 -3,-4 -2,-3 -4,-6 -5,-11 -1,-3 -2,-5 -1,-8 -3,-4 -2,-23 -2,-30l1 -7c0,0 0,-1 0,-1l-1 -143zm223 -290l-5 6c-2,5 -7,13 -10,20 -2,6 -5,16 -9,20 0,5 -4,11 -6,16 -4,-1 -6,-3 -7,-6 -3,-1 -2,-1 -4,-3 -1,-1 -2,-2 -4,-3l-6 -4c-1,-1 -1,-1 -2,-2l-5 -1c-13,-3 -42,-2 -57,-2l-17 0 -21 0c-4,0 -8,1 -12,0 -4,2 -10,0 -20,5 -23,11 -9,17 -43,29l-13 9 -6 4c-1,3 -4,5 -6,7 -2,2 -2,2 -3,3 -2,2 -1,2 -3,3 -2,3 -3,6 -6,8 -1,3 -1,3 -3,6 -1,2 -2,4 -3,4 -1,4 -3,7 -5,12l-4 11 0 10c-2,55 -2,111 -1,166 0,54 -1,112 2,166l3 13c2,2 4,7 5,10 2,4 4,6 5,10 2,1 2,2 2,4 3,2 4,5 6,7 3,3 4,4 5,7 2,1 2,1 4,3 2,1 3,2 4,4 3,2 5,4 8,6l6 4c1,1 1,1 2,2l2 1 17 7c1,0 2,1 3,1 0,0 0,0 1,0l2 1 15 1 68 2 51 1c2,5 6,16 6,20l10 21c3,6 9,14 11,20l2 2c-1,3 -6,14 -8,15 -1,3 -1,3 -3,6 -1,1 -1,1 -1,2 -1,2 -1,1 -2,2 0,3 -2,7 -4,9 -2,6 -12,23 -17,30 -1,2 -2,3 -3,5 0,1 -1,2 -1,2l-2 2c0,3 -7,14 -9,17l-2 2c-1,4 -7,15 -10,18 -1,3 -3,6 -4,8 -1,1 -1,2 -2,4l-3 4 -1 3 -10 19c-1,1 -1,1 -2,2 0,3 -2,6 -4,8 -2,4 -3,8 -6,10 0,4 -7,15 -10,19 -3,6 -7,13 -10,18l-18 36c-1,3 0,1 -2,2 0,3 -1,5 -1,8 -1,4 0,6 0,9 1,1 1,1 1,2 1,1 1,1 1,2 3,6 5,7 7,10 3,1 2,1 5,2 2,1 3,2 6,3l9 1 6 0c0,0 1,-1 1,0l12 -5c1,-1 7,-11 9,-13 1,-4 3,-5 4,-9 1,-2 1,-2 2,-4l3 -4 2 -3c2,-5 8,-17 12,-20 0,-3 0,-1 1,-4 1,-2 2,-3 2,-4 2,-4 4,-9 8,-12 0,-3 2,-5 4,-9l15 -26 23 -40c0,-3 5,-12 7,-13 1,-3 0,-3 3,-5 0,-4 8,-15 10,-18 1,-3 2,-4 3,-6 1,-1 1,-2 2,-3 1,-2 1,-1 2,-3 0,-3 1,-4 3,-7l20 -35c2,0 14,4 16,6 3,0 13,3 16,5 6,1 8,0 7,6 3,3 2,169 2,189l0 13c2,3 3,7 4,10 2,4 4,5 6,8 2,0 1,0 3,1 0,0 2,1 2,1 2,1 3,1 5,2l9 1 4 0 8 -3c3,-2 4,-3 7,-4 0,0 0,-1 0,-1l7 -11 2 -20 0 -18 2 -114c-2,-9 0,-46 0,-58 0,-3 0,-2 1,-4l5 0c3,-2 17,-7 21,-8l12 -5c1,1 2,3 3,5 2,3 2,2 2,5 3,2 4,6 5,9 2,2 9,14 9,17 3,2 5,6 6,10 1,2 4,6 4,8 3,3 11,19 13,22l1 2 10 17c2,1 9,14 9,17 1,1 1,0 2,3 2,2 8,13 8,15 2,2 2,2 3,5 5,9 17,29 20,36 1,0 2,2 2,3 2,3 1,2 2,5 3,2 5,7 6,10 2,2 9,14 9,17 1,1 1,1 2,2 0,1 1,2 2,2 1,1 2,3 2,4 2,3 5,8 6,11 3,2 4,5 6,9 2,3 5,4 7,7 3,0 1,0 4,1 1,1 3,1 4,1l10 1 2 1c3,-2 6,-2 12,-5l4 -3c1,-2 0,-1 2,-3 1,-1 1,-1 2,-3 2,-2 2,-4 3,-6 2,-11 2,-9 -1,-19 -3,-5 -18,-34 -18,-37l-9 -15 -2 -4 -3 -5c-1,-2 -2,-3 -3,-5 -2,-4 -4,-7 -6,-11 -1,0 -1,-1 -2,-2 -1,-2 -1,-2 -1,-4l-4 -5c-2,-3 -2,-4 -3,-7 -2,-2 -9,-14 -9,-17 -3,-2 -3,-4 -4,-7 -2,-2 -3,-4 -4,-6 -1,-1 -1,-2 -2,-3 -2,-3 -1,-1 -1,-4 -4,-3 -9,-14 -12,-19 -3,-5 -9,-15 -11,-20 -2,-2 -8,-14 -11,-18 -2,-3 -3,-6 -5,-9 -2,-3 -4,-6 -4,-10 -3,-3 -6,-8 -7,-12 -2,-3 -3,-4 -3,-7 -3,-2 -2,-2 -4,-5 -1,-2 -2,-3 -3,-5 -2,-3 -4,-7 -5,-10 -2,-2 2,-6 4,-9 1,-2 4,-7 6,-9l6 -13c0,0 0,0 1,-1l2 -5c1,-4 2,-8 4,-12 1,-3 2,-9 4,-11 1,-2 -2,0 2,-1l41 -1 3 0 21 0c4,0 8,-1 11,1 0,0 0,0 1,0 4,-1 17,-1 26,-1l10 0c3,-2 10,-1 15,-2 5,-1 8,-2 13,-3l17 -7c1,-1 0,-1 2,-2 1,0 2,-1 3,-1 2,-2 4,-3 7,-5 1,-1 2,-2 4,-3 2,-2 1,-1 4,-2 2,-4 6,-7 9,-9l8 -10c1,-2 1,-3 3,-5 1,-1 1,-1 2,-2 1,-1 1,-1 2,-2 0,-2 6,-15 7,-17 2,-9 4,-14 5,-24 3,-56 1,-130 1,-186l0 -55c0,-31 1,-66 -3,-96l-6 -17c-3,-2 -8,-11 -9,-15 -3,-1 -2,-1 -2,-3 -3,-2 -2,-2 -4,-4 -1,-2 -3,-3 -4,-4 -3,-3 -6,-5 -8,-9 -3,-1 -1,0 -3,-2 -3,-2 -5,-4 -8,-6 -2,-1 -2,-1 -4,-2 -2,-1 -2,-1 -4,-3 -5,0 -12,-5 -17,-6 -6,-2 -12,-3 -19,-3l-49 -1c-6,0 -14,1 -15,-1 -2,-2 -5,-12 -5,-15 -4,-3 -6,-15 -8,-20 -1,-4 -3,-6 -4,-10 -2,-3 -3,-6 -5,-9 -1,-1 -2,-3 -4,-4 -1,-1 -2,-1 -2,-2 -2,-2 -1,-1 -1,-2 -4,-2 -6,-4 -11,-6 -4,-1 -9,-2 -14,-3 -6,-1 -27,0 -30,-2l-1 1 -21 0 -17 0 -21 0 -17 0c-17,0 -78,0 -93,2 -11,1 -17,8 -22,10zm3 310c0,-7 -1,-21 2,-26 0,-4 1,-9 2,-12 2,-12 16,-37 23,-40 1,-2 1,-2 3,-4 1,-1 1,-1 2,-2 2,-1 1,-1 2,-1 2,-3 3,-4 6,-6 3,-2 3,-3 6,-5 0,-1 0,0 1,-2l6 -3c3,-4 15,-10 21,-12l3 -1c2,-2 4,-2 7,-3 3,-1 5,-1 9,-2 3,-1 9,-2 12,-1 4,-2 19,-1 24,-1l7 2c6,-1 29,6 31,9 19,6 50,36 56,54l2 4c4,3 5,10 6,15 2,3 3,9 2,13 4,5 2,18 2,24l-2 17c-1,10 -10,35 -16,39 0,3 0,2 -2,4 -1,2 -2,2 -3,4 -2,2 -4,6 -6,7 -1,3 -2,3 -5,5 -1,3 -4,5 -6,7l-6 5c-2,1 1,0 -2,1 -1,1 0,1 -1,2 0,0 -1,1 -2,1 -1,1 -2,1 -4,2 -2,2 -8,6 -11,6l-5 3c-2,1 -3,1 -5,2 -4,2 -7,3 -11,4 -10,1 -17,4 -28,4 -7,0 -22,-1 -28,-3 -6,-1 -18,-4 -22,-8 -9,-1 -34,-19 -36,-24 -3,-2 -4,-2 -5,-5 -2,-1 -6,-5 -7,-8 -3,-3 -5,-6 -6,-9 -3,-2 -2,0 -2,-3 -3,-2 -7,-11 -7,-15 -2,-3 -3,-6 -4,-10 -1,-4 -2,-7 -2,-12l-2 -18zm94 -165l-22 5c-2,1 -14,5 -16,5 -2,2 -4,2 -7,3 -3,2 -10,6 -13,6 -2,2 -1,2 -4,3 -10,6 -11,9 -18,15 -3,2 -4,4 -7,6l-25 27c0,2 0,1 -1,3 0,0 -1,1 -1,1 -1,3 -3,5 -4,8 -1,3 -2,5 -5,7 0,3 -5,13 -6,18 -2,6 -3,13 -5,18 -4,23 -4,34 -2,58 1,5 2,13 4,19 1,5 5,13 5,17l10 20c2,3 2,2 2,5 3,2 4,4 6,7 1,1 2,2 2,3 2,2 1,1 2,4 2,2 3,3 5,5 3,3 3,3 4,6 2,1 1,0 2,2 1,1 1,1 2,2 3,2 1,0 3,3 2,1 11,10 11,11l12 9c3,0 6,3 7,4 4,1 7,4 10,5 3,2 7,3 9,5 3,0 7,2 10,3 3,1 7,2 9,4 4,0 14,2 17,3 24,2 34,2 58,-1l18 -5 2 -1c4,-2 12,-6 15,-6 2,-3 17,-10 21,-12l0 0 19 -14c0,-1 0,0 1,-1 0,0 1,-1 1,-1 2,-2 2,-1 3,-2 2,-3 4,-5 7,-8l7 -7c0,-2 -1,0 1,-3 1,-1 2,-2 2,-2 4,-7 11,-16 20,-35 0,-1 1,-2 1,-3l2 -2c0,-3 3,-12 4,-15 4,-22 6,-35 4,-60 -1,-5 -2,-11 -1,-16l-4 -11c-1,-4 -2,-7 -3,-11 -2,-2 -6,-14 -6,-16 -1,-1 -1,0 -2,-2 -1,-1 0,-1 -1,-2 -2,-3 -8,-14 -9,-16 -3,-2 -9,-10 -10,-13 -3,-1 -4,-3 -5,-6l-14 -13c-1,-1 0,0 -2,-1 0,0 -1,-1 -2,-1 -2,-1 -2,-1 -2,-3 -3,-2 -4,-3 -7,-5l-6 -4c0,0 0,0 -1,-1 -2,0 -14,-7 -18,-9 -3,-1 -17,-7 -18,-8l-19 -5c-2,-1 -1,0 -2,-1 -5,1 -12,-1 -17,-2l-24 0 -13 1zm-219 12c-1,1 0,0 -2,2 -1,1 -1,1 -2,1 -3,2 -2,2 -5,3l-7 11c-2,9 -2,12 -1,22 3,5 7,9 8,12 2,1 1,0 2,1l7 5 9 2c17,0 26,-9 31,-21 1,-7 1,-10 1,-16 -2,-2 -3,-7 -5,-10l-6 -6c0,0 0,0 0,-1l-1 -2c-2,0 -1,0 -3,-1 0,0 -2,-1 -2,-1 -6,-2 -9,-2 -16,-2l-7 1z"/>
 </g>
</svg>
