<?xml version="1.0" encoding="UTF-8"?>
<!DOCTYPE svg PUBLIC "-//W3C//DTD SVG 1.1//EN" "http://www.w3.org/Graphics/SVG/1.1/DTD/svg11.dtd">
<!-- Creator: CorelDRAW 2017 -->
<svg xmlns="http://www.w3.org/2000/svg" xml:space="preserve" width="4in" height="4in" version="1.1" style="shape-rendering:geometricPrecision; text-rendering:geometricPrecision; image-rendering:optimizeQuality; fill-rule:evenodd; clip-rule:evenodd"
viewBox="0 0 614 614"
 xmlns:xlink="http://www.w3.org/1999/xlink">
 <defs>
  <style type="text/css">
   <![CDATA[
    .fil0 {fill:#FFF212}
   ]]>
  </style>
 </defs>
 <g id="Layer_x0020_1">
  <metadata id="CorelCorpID_0Corel-Layer"/>
  <path class="fil0" d="M44 44l132 0 0 132 -132 0 0 -132zm395 482l0 -44 -44 0 0 -44 88 0 0 88 -44 0zm-44 -44l0 44 44 0 0 44 -132 0 0 -44 44 0 0 -44 44 0zm-88 -44l44 0 0 44 -44 0 0 -44zm44 0l0 -44 44 0 0 44 -44 0zm0 -44l-44 0 0 -88 44 0 0 -44 -44 0 0 -44 44 0 0 -132 -44 0 0 -44 44 0 0 -44 -88 0 0 132 44 0 0 44 -44 0 0 88 44 0 0 44 -132 0 0 -44 -88 0 0 44 -44 0 0 -44 -44 0 0 44 44 0 0 44 44 0 0 -44 44 0 0 44 132 0 0 44 44 0 0 44 -44 0 0 132 44 0 0 44 175 0 0 -88 88 0 0 44 -44 0 0 44 44 0 0 -44 44 0 0 -44 -44 0 0 -44 44 0 0 -44 -44 0 0 -88 44 0 0 -88 -44 0 0 44 -44 0 0 88 -132 0 0 -44 -44 0 0 44zm-263 132l44 0 0 -44 -44 0 0 44zm395 -395l44 0 0 -44 -44 0 0 44zm88 307l0 44 -44 0 0 -44 44 0zm-482 -307l44 0 0 -44 -44 0 0 44zm307 175l44 0 0 44 44 0 0 -88 -88 0 0 44zm-351 132l132 0 0 132 -132 0 0 -132zm-44 175l219 0 0 -219 -219 0 0 219zm438 -570l132 0 0 132 -132 0 0 -132zm-44 175l219 0 0 -219 -219 0 0 219zm-395 0l219 0 0 -219 -219 0 0 219z"/>
 </g>
</svg>
