<?xml version="1.0" encoding="UTF-8"?>
<!DOCTYPE svg PUBLIC "-//W3C//DTD SVG 1.1//EN" "http://www.w3.org/Graphics/SVG/1.1/DTD/svg11.dtd">
<!-- Creator: CorelDRAW 2017 -->
<svg xmlns="http://www.w3.org/2000/svg" xml:space="preserve" width="4in" height="4.25412in" version="1.1" style="shape-rendering:geometricPrecision; text-rendering:geometricPrecision; image-rendering:optimizeQuality; fill-rule:evenodd; clip-rule:evenodd"
viewBox="0 0 4265 4536"
 xmlns:xlink="http://www.w3.org/1999/xlink">
 <defs>
  <style type="text/css">
   <![CDATA[
    .fil0 {fill:#FFF212}
   ]]>
  </style>
 </defs>
 <g id="Layer_x0020_1">
  <metadata id="CorelCorpID_0Corel-Layer"/>
  <path class="fil0" d="M2132 240c63,0 250,119 315,161 104,69 178,138 263,224l107 131c186,250 310,575 309,902 -1,289 -23,210 56,431 46,128 248,633 265,708l-518 0 -29 33c-2,197 13,427 -12,609 -23,167 -141,244 -294,253 -39,2 -23,-6 -69,-6l-787 0c-70,0 -138,24 -243,-47 -62,-42 -105,-105 -120,-190 -26,-153 -10,-443 -10,-622l-33 -29 -515 -2c13,-56 42,-124 62,-176 23,-57 42,-111 67,-171 25,-61 41,-112 65,-173 141,-362 128,-249 127,-608 0,-366 166,-794 411,-1038 87,-87 159,-157 261,-225 54,-35 262,-166 321,-166zm-279 1843l-124 0 0 -331c193,0 290,-24 290,186 0,103 -62,145 -166,145zm-280 -393l0 797c0,108 155,81 155,21l0 -300c157,0 354,12 419,-161 71,-190 9,-429 -274,-429 -179,0 -300,-30 -300,72zm973 352l-135 0 0 -290c123,0 300,-29 300,145 0,41 -19,91 -43,112 -26,23 -75,33 -122,33zm-280 -373l0 838c0,63 145,73 145,10l0 -352 124 0 104 207c61,122 67,186 155,186 31,0 75,-51 66,-86l-114 -218c-11,-23 -16,-32 -29,-54 -18,-29 -23,-26 -26,-67 137,-32 166,-138 166,-269 0,-289 -320,-248 -538,-248 -24,0 -52,28 -52,52zm62 -1501c51,-1 115,-19 170,-27 423,-62 907,101 1142,340 30,30 53,40 78,67l132 158c173,240 291,566 291,870 0,142 -44,360 -90,491 -38,109 -112,241 -168,411 -127,381 -115,345 -115,723 0,337 111,889 186,1211l-1387 0c-4,-45 -23,-103 -35,-151 -31,-123 -78,-361 -130,-439 241,0 421,18 561,-205 27,-43 60,-132 60,-199l0 -497 435 0c84,0 124,-96 124,-135 0,-56 -317,-792 -321,-879 -15,-284 32,-319 -64,-671 -94,-346 -301,-649 -579,-870 -26,-20 -35,-28 -65,-49l-224 -149zm-1646 2619c0,37 40,135 124,135l435 0 0 497c0,135 80,251 180,327 119,90 242,77 441,77 -51,77 -99,312 -128,431 -12,49 -33,114 -37,159l-1387 0c44,-188 83,-374 117,-577 68,-406 70,-485 70,-883 0,-415 -358,-821 -373,-1366 -4,-140 44,-363 87,-493 51,-153 160,-346 263,-462l67 -77c25,-30 48,-38 77,-67 272,-271 742,-396 1139,-347 49,6 125,27 179,28 -24,36 -76,53 -143,95 -101,64 -248,180 -331,270l-160 202c-104,156 -183,315 -234,501 -75,275 -62,377 -64,651 0,74 -34,131 -56,192 -31,87 -265,677 -265,708zm-683 -1294c0,299 12,415 120,688 25,62 49,95 71,157 76,216 182,435 182,718 0,452 -85,837 -173,1255 -10,46 -77,225 18,225l1542 0c61,0 112,-294 135,-383 66,-265 47,-331 280,-331 27,0 71,22 89,35 24,18 46,55 54,81 20,64 36,146 52,207 23,93 76,391 137,391l1542 0c94,0 29,-173 20,-217 -88,-423 -175,-795 -175,-1253 0,-568 373,-897 373,-1429 0,-369 -47,-553 -207,-849 -96,-178 -277,-382 -439,-493 -43,-29 -66,-47 -112,-75 -192,-116 -464,-219 -712,-219 -212,0 -346,-3 -552,58 -208,62 -42,31 -337,-28 -220,-44 -536,-46 -750,18 -150,45 -265,91 -392,167 -154,92 -330,245 -439,389 -16,21 -23,34 -38,55 -156,208 -287,566 -287,831z"/>
 </g>
</svg>
