<?xml version="1.0" encoding="UTF-8"?>
<!DOCTYPE svg PUBLIC "-//W3C//DTD SVG 1.1//EN" "http://www.w3.org/Graphics/SVG/1.1/DTD/svg11.dtd">
<!-- Creator: CorelDRAW 2017 -->
<svg xmlns="http://www.w3.org/2000/svg" xml:space="preserve" width="4in" height="3.20899in" version="1.1" style="shape-rendering:geometricPrecision; text-rendering:geometricPrecision; image-rendering:optimizeQuality; fill-rule:evenodd; clip-rule:evenodd"
viewBox="0 0 543 436"
 xmlns:xlink="http://www.w3.org/1999/xlink">
 <defs>
  <style type="text/css">
   <![CDATA[
    .fil0 {fill:#FFF212}
   ]]>
  </style>
 </defs>
 <g id="Layer_x0020_1">
  <metadata id="CorelCorpID_0Corel-Layer"/>
  <path class="fil0" d="M97 0l350 0c53,0 97,44 97,97l0 242c0,53 -44,97 -97,97l-350 0c-53,0 -97,-44 -97,-97l0 -242c0,-53 44,-97 97,-97zm151 194c-20,-5 -35,-1 -44,16 0,33 0,66 0,99 3,15 14,20 32,18 32,-17 63,-33 95,-50 15,-13 17,-27 0,-43 -28,-14 -55,-27 -83,-41zm-13 32l68 34 -68 34 0 -68zm267 -97l0 232c0,23 -19,41 -41,41l-379 0c-23,0 -41,-19 -41,-41l0 -232 461 0zm-437 -91l11 0 59 60 -100 0 0 -30c0,-16 13,-30 30,-30zm47 0l65 0 59 60 -65 0 -59 -60zm100 0l65 0 59 60 -65 0 -59 -60zm100 0l65 0 59 60 -65 0 -59 -60zm100 0l65 0c16,0 30,13 30,30l0 30 -36 0 -59 -60z"/>
 </g>
</svg>
