<?xml version="1.0" encoding="UTF-8"?>
<!DOCTYPE svg PUBLIC "-//W3C//DTD SVG 1.1//EN" "http://www.w3.org/Graphics/SVG/1.1/DTD/svg11.dtd">
<!-- Creator: CorelDRAW 2017 -->
<svg xmlns="http://www.w3.org/2000/svg" xml:space="preserve" width="1in" height="1in" version="1.1" style="shape-rendering:geometricPrecision; text-rendering:geometricPrecision; image-rendering:optimizeQuality; fill-rule:evenodd; clip-rule:evenodd"
viewBox="0 0 56 56"
 xmlns:xlink="http://www.w3.org/1999/xlink">
 <defs>
  <style type="text/css">
   <![CDATA[
    .fil0 {fill:#FFF212}
   ]]>
  </style>
 </defs>
 <g id="Layer_x0020_1">
  <metadata id="CorelCorpID_0Corel-Layer"/>
  <path class="fil0" d="M6 8l0 0 0 -2c0,-3 3,-6 6,-6l37 0c3,0 6,3 6,6l0 44c0,3 -3,6 -6,6l-43 0 0 0c-3,0 -6,-3 -6,-6l0 -35c0,-3 3,-6 6,-6zm4 39c0,1 -1,2 -2,2l0 0c-1,0 -2,-1 -2,-2 0,-11 0,-23 0,-34l-2 0c-1,0 -2,1 -2,2l0 37c0,1 1,2 2,2l2 0 0 0 7 0 37 0c1,0 2,-1 2,-2l0 -45c0,-1 -1,-2 -2,-2l-39 0c-1,0 -2,1 -2,2 0,14 0,28 0,41zm6 -40l11 0c1,0 2,1 2,2l0 11c0,1 -1,2 -2,2l-11 0c-1,0 -2,-1 -2,-2l0 -11c0,-1 1,-2 2,-2zm1 3l9 0 0 9 -9 0 0 -9zm16 2c0,0 -1,0 -1,-1 0,0 0,-1 1,-1l14 0c0,0 1,0 1,1 0,0 0,1 -1,1l-14 0zm0 5c0,0 -1,0 -1,-1 0,0 0,-1 1,-1l14 0c0,0 1,0 1,1 0,0 0,1 -1,1l-14 0zm0 5c0,0 -1,0 -1,-1 0,0 0,-1 1,-1l14 0c0,0 1,0 1,1 0,0 0,1 -1,1l-14 0zm-20 5c0,0 -1,0 -1,-1 0,0 0,-1 1,-1l34 0c0,0 1,0 1,1 0,0 0,1 -1,1l-34 0zm0 5c0,0 -1,0 -1,-1 0,0 0,-1 1,-1l34 0c0,0 1,0 1,1 0,0 0,1 -1,1l-34 0zm20 5c0,0 -1,0 -1,-1 0,0 0,-1 1,-1l14 0c0,0 1,0 1,1 0,0 0,1 -1,1l-14 0zm-20 0c0,0 -1,0 -1,-1 0,0 0,-1 1,-1l14 0c0,0 1,0 1,1 0,0 0,1 -1,1l-14 0zm20 5c0,0 -1,0 -1,-1 0,0 0,-1 1,-1l14 0c0,0 1,0 1,1 0,0 0,1 -1,1l-14 0zm-20 0c0,0 -1,0 -1,-1 0,0 0,-1 1,-1l14 0c0,0 1,0 1,1 0,0 0,1 -1,1l-14 0zm20 5c0,0 -1,0 -1,-1 0,0 0,-1 1,-1l14 0c0,0 1,0 1,1 0,0 0,1 -1,1l-14 0zm-20 0c0,0 -1,0 -1,-1 0,0 0,-1 1,-1l14 0c0,0 1,0 1,1 0,0 0,1 -1,1l-14 0z"/>
 </g>
</svg>
