<?xml version="1.0" encoding="utf-8"?>
<!-- Generator: Adobe Illustrator 24.2.1, SVG Export Plug-In . SVG Version: 6.00 Build 0)  -->
<svg version="1.1" id="Layer_1" xmlns="http://www.w3.org/2000/svg" xmlns:xlink="http://www.w3.org/1999/xlink" x="0px" y="0px"
	 viewBox="0 0 120 120" style="enable-background:new 0 0 120 120;" xml:space="preserve">
<style type="text/css">
	.st0{fill:none;stroke:#FFE500;stroke-width:3;stroke-linecap:round;stroke-linejoin:round;}
</style>
<g id="Group-14" transform="translate(0.368906, 0.000000)">
	<path id="Stroke-5" class="st0" d="M58.6,64.1l2.1,4.5c0.1,0.2,0.2,0.3,0.4,0.3l4.7,0.7c0.4,0.1,0.6,0.6,0.3,0.9L62.7,74
		c-0.1,0.1-0.2,0.3-0.1,0.5l0.8,5c0.1,0.4-0.4,0.8-0.7,0.6l-4.2-2.3c-0.1-0.1-0.3-0.1-0.5,0L53.7,80c-0.4,0.2-0.8-0.1-0.7-0.6l0.8-5
		c0-0.2,0-0.3-0.1-0.5l-3.4-3.5c-0.3-0.3-0.1-0.8,0.3-0.9l4.7-0.7c0.2,0,0.3-0.1,0.4-0.3l2.1-4.5C57.9,63.7,58.4,63.7,58.6,64.1z"/>
	<polyline id="Stroke-1" class="st0" points="38.5,55.9 33.2,41.8 42.9,30.2 49.6,48.2 	"/>
	<polyline id="Stroke-3" class="st0" points="77.8,55.9 83,41.8 73.4,30.2 66.7,48.2 	"/>
	<path id="Stroke-5_1_" class="st0" d="M42.9,30.2h30.5"/>
	<path id="Stroke-9" class="st0" d="M47.2,41.8h21.9"/>
	<path id="Stroke-10" class="st0" d="M77.4,71.9c0,10.7-8.6,19.3-19.3,19.3s-19.3-8.6-19.3-19.3s8.6-19.3,19.3-19.3
		S77.4,61.3,77.4,71.9z"/>
	<path id="Stroke-16" class="st0" d="M93,71.4h-8.3"/>
	<path id="Stroke-18" class="st0" d="M33.2,80.5l-7.8,2.8"/>
	<path id="Stroke-20" class="st0" d="M90.9,59.5l-7.8,2.8"/>
	<path id="Stroke-22" class="st0" d="M83.1,80.5l7.8,2.8"/>
	<path id="Stroke-24" class="st0" d="M25.4,59.5l7.8,2.8"/>
	<path id="Stroke-14" class="st0" d="M32.9,71.2h-8.3"/>
</g>
</svg>
