<?xml version="1.0" encoding="UTF-8"?>
<!DOCTYPE svg PUBLIC "-//W3C//DTD SVG 1.1//EN" "http://www.w3.org/Graphics/SVG/1.1/DTD/svg11.dtd">
<!-- Creator: CorelDRAW 2017 -->
<svg xmlns="http://www.w3.org/2000/svg" xml:space="preserve" width="1in" height="0.802247in" version="1.1" style="shape-rendering:geometricPrecision; text-rendering:geometricPrecision; image-rendering:optimizeQuality; fill-rule:evenodd; clip-rule:evenodd"
viewBox="0 0 136 109"
 xmlns:xlink="http://www.w3.org/1999/xlink">
 <defs>
  <style type="text/css">
   <![CDATA[
    .fil0 {fill:#FFF212}
   ]]>
  </style>
 </defs>
 <g id="Layer_x0020_1">
  <metadata id="CorelCorpID_0Corel-Layer"/>
  <path class="fil0" d="M24 0l87 0c13,0 24,11 24,24l0 61c0,13 -11,24 -24,24l-87 0c-13,0 -24,-11 -24,-24l0 -61c0,-13 11,-24 24,-24zm38 48c-5,-1 -9,0 -11,4 0,8 0,16 0,25 1,4 4,5 8,5 8,-4 16,-8 24,-12 4,-3 4,-7 0,-11 -7,-3 -14,-7 -21,-10zm-3 8l17 9 -17 9 0 -17zm67 -24l0 58c0,6 -5,10 -10,10l-95 0c-6,0 -10,-5 -10,-10l0 -58 115 0zm-109 -23l3 0 15 15 -25 0 0 -7c0,-4 3,-7 7,-7zm12 0l16 0 15 15 -16 0 -15 -15zm25 0l16 0 15 15 -16 0 -15 -15zm25 0l16 0 15 15 -16 0 -15 -15zm25 0l16 0c4,0 7,3 7,7l0 7 -9 0 -15 -15z"/>
 </g>
</svg>
