<svg width="512" height="512" xmlns="http://www.w3.org/2000/svg">

 <g>
  <title>background</title>
  <rect fill="none" id="canvas_background" height="402" width="582" y="-1" x="-1"/>
 </g>
 <g>
  <title>Layer 1</title>
  <path id="svg_20" fill="#62C2FF" d="m91.354,426.134c-1.458,0 -2.873,-0.579 -3.923,-1.651c-1.447,-1.479 -1.94,-3.644 -1.275,-5.605l28.363,-83.652c-14.846,-25.243 -22.671,-54.057 -22.671,-83.47c0,-91.477 74.98,-165.889 167.143,-165.889c92.163,0 167.144,74.423 167.144,165.91c0,91.467 -74.98,165.89 -167.144,165.89c-27.44,0 -54.603,-6.742 -78.699,-19.52l-87.275,27.73c-0.548,0.171 -1.105,0.257 -1.663,0.257zm92.871,-67.317c1.051,0 2.101,0.301 3.012,0.9c21.342,14.011 46.157,21.417 71.753,21.417c71.915,0 130.42,-58.044 130.42,-129.38c0,-71.335 -58.505,-129.358 -130.42,-129.358c-71.914,0 -130.419,58.033 -130.419,129.379c0,27.398 8.586,53.617 24.825,75.816c1.051,1.447 1.34,3.313 0.772,5.006l-13.485,39.8l41.88,-13.323c0.537,-0.171 1.104,-0.257 1.662,-0.257zm118.489,-25.876c-5.488,0 -14.61,-1.383 -40.711,-11.565c-25.008,-9.786 -49.641,-31.14 -69.363,-60.146l-0.708,-1.028c-5.198,-6.85 -17.279,-24.858 -17.279,-43.97c0,-20.324 10.237,-31.14 14.61,-35.759c6.271,-6.785 12.767,-7.439 15.307,-7.439c1.49,0 2.98,0.097 4.417,0.193c1.104,0.075 2.176,0.15 3.183,0.15l1.897,-0.086c5.306,0 9.25,3.28 12.07,10.012l4.362,10.473c3.345,8.061 7.032,17.012 7.707,18.373c2.08,4.159 2.187,8.136 0.322,11.823l-0.482,0.965c-1.104,2.251 -2.058,4.18 -4.223,6.7l-1.983,2.358c-1.479,1.79 -2.969,3.559 -4.255,4.834c-0.365,0.364 -1.072,1.061 -1.223,1.351c3.066,4.609 10.516,16.336 21.299,25.876c11.995,10.623 22.263,15.039 27.773,17.418c1.211,0.525 2.197,0.954 2.916,1.318c1.34,0.654 1.844,0.676 1.865,0.676c3.13,-3.773 10.012,-11.866 12.252,-15.221c2.411,-3.602 5.52,-5.424 9.218,-5.424c2.208,0 4.234,0.664 6.121,1.34c4.48,1.618 27.44,12.938 27.666,13.045l2.015,0.976c3.452,1.64 6.175,2.947 7.836,5.691c2.658,4.405 1.04,15.339 -1.854,23.39c-4.255,11.834 -22.928,21.534 -31.429,22.285c-0.932,0.085 -1.715,0.289 -2.519,0.482c-1.672,0.406 -3.763,0.909 -6.807,0.909l0,0z"/>
  <path id="svg_21" fill="#48B0F5" d="m409.669,251.776c0,88.583 -72.375,160.401 -161.655,160.401c-28.341,0 -54.967,-7.246 -78.142,-19.959l-89.494,28.427l29.178,-86.053c-14.729,-24.183 -23.196,-52.524 -23.196,-82.838c0,-88.582 72.375,-160.4 161.655,-160.4c89.279,0 161.654,71.819 161.654,160.422zm-161.655,-134.867c-74.948,0 -135.908,60.499 -135.908,134.868c0,29.499 9.626,56.833 25.887,79.064l-16.968,50.08l52.224,-16.615c21.459,14.085 47.164,22.317 74.766,22.317c74.937,0 135.908,-60.498 135.908,-134.868c-0.001,-74.348 -60.972,-134.846 -135.909,-134.846zm81.627,171.806c-0.997,-1.65 -3.634,-2.637 -7.59,-4.588c-3.966,-1.973 -23.453,-11.491 -27.076,-12.799c-3.645,-1.308 -6.281,-1.973 -8.929,1.973c-2.638,3.944 -10.227,12.777 -12.542,15.414c-2.314,2.615 -4.619,2.938 -8.586,0.986c-3.955,-1.973 -16.732,-6.132 -31.868,-19.53c-11.78,-10.419 -19.734,-23.282 -22.039,-27.205c-2.315,-3.945 -0.246,-6.067 1.736,-8.04c1.78,-1.758 3.956,-4.588 5.938,-6.882c1.983,-2.293 2.648,-3.923 3.966,-6.56c1.329,-2.615 0.654,-4.909 -0.333,-6.882c-0.986,-1.972 -8.918,-21.31 -12.22,-29.177c-3.301,-7.868 -6.592,-6.56 -8.907,-6.56s-4.952,-0.343 -7.6,-0.343c-2.647,0 -6.935,0.986 -10.569,4.931c-3.634,3.923 -13.86,13.441 -13.86,32.779c0,19.358 14.192,38.053 16.175,40.668c1.983,2.615 27.397,43.605 67.68,59.362c40.304,15.735 40.304,10.483 47.561,9.819c7.257,-0.644 23.442,-9.498 26.744,-18.673c3.305,-9.196 3.305,-17.064 2.319,-18.693l0,0z"/>
  <path id="svg_22" fill="#234AA8" d="m258.99,91.354c89.279,0 161.655,71.818 161.655,160.422c0,88.583 -72.376,160.401 -161.655,160.401c-28.341,0 -54.967,-7.246 -78.142,-19.959l-89.494,28.427l29.178,-86.053c-14.729,-24.183 -23.196,-52.524 -23.196,-82.838c0,-88.581 72.375,-160.4 161.654,-160.4m-126.989,289.567l52.224,-16.615c21.46,14.085 47.164,22.317 74.766,22.317c74.938,0 135.908,-60.498 135.908,-134.868c0,-74.348 -60.971,-134.846 -135.908,-134.846c-74.948,0 -135.907,60.499 -135.907,134.868c0,29.499 9.626,56.833 25.887,79.064l-16.97,50.08m72.568,-202.399c2.648,0 5.285,0.343 7.6,0.343c0.579,0 1.211,-0.086 1.897,-0.086c2.058,0 4.534,0.74 7.01,6.646c3.302,7.868 11.233,27.205 12.22,29.177c0.986,1.973 1.662,4.267 0.332,6.882c-1.318,2.637 -1.982,4.267 -3.966,6.56c-1.983,2.294 -4.159,5.124 -5.938,6.882c-1.983,1.972 -4.052,4.095 -1.736,8.04c2.305,3.923 10.258,16.786 22.039,27.205c15.135,13.398 27.913,17.558 31.868,19.53c1.705,0.836 3.098,1.254 4.32,1.254c1.629,0 2.947,-0.75 4.266,-2.24c2.315,-2.637 9.904,-11.47 12.541,-15.414c1.501,-2.229 2.991,-2.99 4.663,-2.99c1.298,0 2.69,0.449 4.267,1.018c3.623,1.308 23.11,10.826 27.076,12.799c3.955,1.951 6.593,2.938 7.59,4.588c0.985,1.629 0.985,9.497 -2.316,18.694c-3.301,9.175 -19.486,18.029 -26.744,18.673c-3.055,0.278 -4.813,1.371 -8.843,1.371c-5.542,0 -15.36,-2.079 -38.718,-11.19c-40.282,-15.757 -65.697,-56.747 -67.68,-59.362s-16.175,-21.31 -16.175,-40.668c0,-19.338 10.227,-28.856 13.86,-32.779c3.633,-3.947 7.92,-4.933 10.567,-4.933m54.421,-98.144c-95.196,0 -172.631,76.878 -172.631,171.377c0,29.553 7.643,58.505 22.167,84.07l-27.569,81.294c-1.329,3.923 -0.343,8.254 2.562,11.212c2.09,2.134 4.931,3.291 7.836,3.291c1.104,0 2.229,-0.172 3.323,-0.515l85.099,-27.033c24.364,12.498 51.655,19.08 79.214,19.08c95.197,0 172.632,-76.878 172.632,-171.378c-0.001,-94.509 -77.435,-171.398 -172.633,-171.398l0,0zm-109.624,283.499l10.001,-29.521c1.147,-3.376 0.568,-7.117 -1.543,-10.001c-15.542,-21.256 -23.764,-46.359 -23.764,-72.579c0,-68.313 56.039,-123.891 124.931,-123.891c68.893,0 124.932,55.568 124.932,123.87c0,68.313 -56.039,123.892 -124.932,123.892c-24.514,0 -48.3,-7.096 -68.741,-20.516c-1.812,-1.19 -3.913,-1.801 -6.024,-1.801c-1.114,0 -2.24,0.171 -3.333,0.514l-31.527,10.033l0,0zm55.203,-196.331c-3.258,0 -11.598,0.825 -18.64,8.468l-0.654,0.687c-4.406,4.663 -16.111,17.021 -16.111,39.532c0,20.784 12.863,39.993 18.394,47.293l0.547,0.793c20.334,29.906 45.867,51.987 71.893,62.16c26.959,10.525 36.724,11.951 42.716,11.951c3.698,0 6.238,-0.621 8.093,-1.061c0.558,-0.14 1.094,-0.301 1.758,-0.365c9.723,-0.857 30.839,-11.34 36.07,-25.887c0.696,-1.95 6.688,-19.315 1.372,-28.084c-2.498,-4.148 -6.389,-6.013 -10.162,-7.803l-1.962,-0.954c-0.192,-0.097 -23.303,-11.502 -28.201,-13.271c-2.262,-0.814 -4.91,-1.672 -7.997,-1.672c-3.88,0 -9.422,1.361 -13.773,7.846c-1.533,2.294 -5.885,7.568 -9.391,11.652c-0.289,-0.129 -0.6,-0.258 -0.911,-0.396c-5.23,-2.252 -14.975,-6.453 -26.305,-16.486c-8.264,-7.311 -14.588,-16.229 -17.879,-21.342c0.857,-0.976 1.747,-2.047 2.637,-3.119c0.643,-0.772 1.286,-1.555 1.908,-2.272c2.637,-3.044 3.837,-5.488 4.995,-7.857l0.482,-0.965c1.822,-3.591 3.28,-9.476 -0.333,-16.7c-0.654,-1.394 -4.802,-11.395 -7.546,-18.019l-4.373,-10.494c-3.72,-8.875 -9.476,-13.377 -17.129,-13.377c-0.6,0 -1.179,0.032 -1.737,0.064c-0.096,0 -0.192,0.011 -0.289,0.011c-0.933,0 -1.801,-0.075 -2.69,-0.128c-1.555,-0.108 -3.163,-0.205 -4.782,-0.205l0,0z"/>
 </g>
</svg>